<?xml version="1.0" standalone="no"?>
<!DOCTYPE svg PUBLIC "-//W3C//DTD SVG 1.1//EN" "http://www.w3.org/Graphics/SVG/1.1/DTD/svg11.dtd" >
<svg xmlns="http://www.w3.org/2000/svg">
<metadata>
This is a custom SVG webfont generated by Font Squirrel.
Copyright   :  Apple Inc 19922007
</metadata>
<defs>
<font id="webfont8cKuvnTh" horiz-adv-x="2000" >
<font-face units-per-em="2000" ascent="1600" descent="-400" />
<missing-glyph horiz-adv-x="500" />
<glyph unicode="&#xd;" horiz-adv-x="430" />
<glyph horiz-adv-x="0" />
<glyph horiz-adv-x="0" />
<glyph horiz-adv-x="0" />
<glyph unicode="&#x9;" />
<glyph unicode=" " />
<glyph unicode="&#x231b;" horiz-adv-x="1700" d="M1519 16q0 -28 -16 -28q-7 0 -56 2q-317 10 -597 10q-281 0 -598 -10q-49 -2 -56 -2q-16 0 -16 28q0 9 7 21q27 45 61 131q5 14 20 14h48q-16 6 -16 34q0 22 16 27q40 14 40 109q0 52 -28 118q-18 44 -18 68q0 30 7.5 47t30.5 37q-45 21 -56.5 33t-11.5 29t11.5 29.5 t56.5 34.5q-23 20 -30.5 37t-7.5 47q0 23 19 68q27 65 27 115q0 98 -40 111q-16 5 -16 27q0 28 16 34h-48q-16 0 -21 14q-32 84 -60 132q-7 11 -7 18q0 28 16 28q7 0 56 -2q317 -10 598 -10q280 0 597 10q49 2 56 2q16 0 16 -28q0 -11 -6 -21q-29 -45 -61 -129 q-5 -14 -21 -14h-48q16 -6 16 -34q0 -22 -16 -27q-38 -13 -38 -111q0 -50 27 -115q19 -45 19 -68q0 -29 -7.5 -46t-32.5 -38q45 -22 56.5 -34.5t11.5 -29.5t-11.5 -29t-56.5 -33q25 -22 32.5 -39t7.5 -45q0 -24 -18 -68q-28 -66 -28 -118q0 -96 38 -109q16 -5 16 -27 q0 -28 -16 -34h48q15 0 21 -14q33 -86 61 -129q6 -10 6 -23zM1437 1313q-490 -10 -587 -10q-88 0 -588 10l32 -62h1111zM1075 1029q0 71 -34 158h-383q-32 -82 -32 -158q0 -79 54 -115t170 -36q225 0 225 151zM1281 352q0 52 -29 118q-19 44 -19 68q0 47 40 84 q-45 21 -56.5 33t-11.5 29t11.5 29.5t56.5 34.5q-24 21 -32 38t-8 46q0 23 20 68q28 65 28 115q0 98 -39 111q-17 5 -17 27q0 28 16 34h-136q34 -87 34 -158q0 -63 -29.5 -114.5t-119.5 -116.5q-58 -43 -75 -66t-17 -48t16.5 -48t74.5 -65q90 -65 120 -116t30 -115 q0 -70 -34 -158h136q-16 6 -16 34q0 22 17 28q39 13 39 108zM1075 340q0 47 -23.5 85t-99.5 93q-50 37 -70 58q0 -135 43 -185.5t150 -50.5zM802 684q0 25 -17 48t-75 66q-89 65 -118.5 116.5t-29.5 114.5q0 76 32 158h-136q16 -6 16 -34q0 -22 -16 -27q-38 -13 -38 -111 q0 -50 27 -115q19 -45 19 -68q0 -49 -38 -84q43 -22 54.5 -34.5t11.5 -29.5q0 -16 -11.5 -28.5t-54.5 -33.5q38 -35 38 -84q0 -24 -18 -68q-28 -66 -28 -118q0 -96 38 -109q16 -5 16 -27q0 -28 -16 -34h136q-32 83 -32 158q0 64 29.5 115t119.5 116q57 42 74 65t17 48z M818 576q-21 -21 -70 -57q-75 -55 -98.5 -93.5t-23.5 -85.5q106 0 149 50.5t43 185.5zM1437 56l-32 62h-1111l-32 -62q400 8 588 8q195 0 587 -8z" />
<glyph unicode="&#x2500;" d="M2015 690q0 -32 -16 -32h-1999q-14 0 -14 32q0 34 14 34h1999q16 0 16 -34z" />
<glyph unicode="&#x261c;" horiz-adv-x="3228" d="M3226 540q0 -53 -37.5 -91.5t-88.5 -38.5q-66 0 -104 48q-26 -5 -54.5 -29.5t-82.5 -98.5q-74 -102 -117 -126q35 -40 57.5 -102t22.5 -122q0 -46 -24 -130q-24 -87 -24 -134q65 0 116.5 -45t51.5 -107q0 -54 -34 -88t-92 -34q-78 0 -121.5 38t-43.5 104q0 10 5 34t5 34 q0 42 -58 99.5t-138.5 92t-161.5 34.5q-27 0 -48 -6q-31 -8 -46 -8q-33 0 -54.5 33.5t-25.5 92.5h-56q-106 0 -279 25q-113 17 -159 17q-51 0 -85 -14q-31 -12 -45 -12q-29 0 -40 22q-105 -48 -200 -48q-57 0 -102.5 44t-45.5 98q-31 10 -71.5 48.5t-44.5 59.5 q-26 -8 -66 -8q-84 0 -155.5 45t-71.5 101q0 45 23.5 65.5t86.5 20.5q-43 20 -83.5 66t-40.5 70q0 53 36.5 97t131.5 99q-439 -74 -636 -74q-119 0 -172.5 23.5t-53.5 82.5q0 49 26 72t131.5 58.5t264.5 81.5q267 78 480 100.5t505 22.5q34 0 72 -17t127 -82 q134 -98 233 -150t210 -90q89 27 198 96t195 150t89 115q-32 39 -32 100q0 65 45 115.5t107 50.5q55 0 88 -34.5t33 -93.5q0 -52 -30 -95t-75 -53q22 -34 22 -128q0 -112 -48 -231q90 -10 228 -112q89 -66 127 -72q38 48 104 48q51 0 88.5 -38.5t37.5 -91.5zM2918 532 q-25 12 -79 53q-103 77 -178.5 106t-161.5 35q32 71 58 163t26 148q0 63 -12 102q-4 -47 -138 -162q-29 -179 -114 -359q193 0 374 -98q-85 -113 -148 -166t-134 -80q62 -44 112 -132.5t50 -161.5q0 -36 -22 -120q79 -49 118 -100q3 35 23 97q25 78 25 123q0 59 -32 126.5 t-80 117.5q72 36 176 177q57 77 84.5 101.5t52.5 29.5zM2223 360q0 150 -51.5 263.5t-122.5 135.5q-119 36 -225.5 90t-247.5 160q-79 59 -111 74.5t-58 15.5q-221 0 -396 -13.5t-323 -42t-519 -149.5l-63 -21q-52 -15 -52 -55q0 -29 39 -40.5t133 -11.5q113 0 343 29.5 t468 74.5q33 -48 98 -108.5t110 -83.5q-18 93 -18 235q0 12 26 12q28 0 28 -12q0 -137 13 -199.5t43 -109.5q11 -17 11 -33q0 -33 -110.5 -74t-186.5 -41q-10 0 -10 -31q0 -47 20.5 -90t49.5 -43q136 0 257 49t209 139q12 0 70 -53q131 -119 225 -165t183 -46 q77 0 122.5 39.5t45.5 104.5zM1223 538q-75 12 -256 12q-20 0 -20 26q0 20 20 20q94 0 116 88q-62 50 -100 96q-106 -42 -170.5 -91t-64.5 -91q0 -17 42.5 -57t93.5 -67q56 0 157.5 19t181.5 45zM1515 290q0 28 -28 28q-13 0 -26 -9q-25 -16 -126 -36.5t-146 -20.5 q-30 0 -30 -46t30 -46q92 0 209 43t117 87zM1523 180q0 22 -22 22q-7 0 -16 -6q-41 -28 -119.5 -52t-126.5 -24q-44 0 -44 -28q0 -52 86 -52q74 0 158 52.5t84 87.5z" />
<glyph unicode="&#x261e;" horiz-adv-x="3228" d="M3226 818q0 -59 -53.5 -82.5t-172.5 -23.5q-197 0 -635 74q94 -55 131 -99t37 -97q0 -24 -41 -70t-83 -66q62 0 86 -20.5t24 -65.5q0 -56 -72 -101t-156 -45q-40 0 -66 8q-3 -21 -44 -59.5t-72 -48.5q0 -54 -45.5 -98t-102.5 -44q-94 0 -200 48q-11 -22 -40 -22 q-14 0 -45 12q-34 14 -85 14q-45 0 -159 -17q-173 -25 -279 -25h-56q-4 -59 -25.5 -92.5t-54.5 -33.5q-15 0 -45 8q-22 6 -49 6q-81 0 -161.5 -34.5t-138 -92t-57.5 -99.5q0 -10 5 -34t5 -34q0 -66 -43.5 -104t-122.5 -38q-57 0 -91.5 34t-34.5 88q0 62 51.5 107t116.5 45 q0 47 -24 134q-24 84 -24 130q0 60 22.5 122t57.5 102q-43 24 -117 126q-54 74 -82.5 98.5t-54.5 29.5q-38 -48 -104 -48q-51 0 -88.5 38.5t-37.5 91.5t37.5 91.5t88.5 38.5q66 0 104 -48q39 6 128 72q84 62 132.5 84.5t95.5 27.5q-48 119 -48 231q0 94 22 128 q-46 10 -76 53t-30 95q0 59 33.5 93.5t88.5 34.5q61 0 106.5 -50.5t45.5 -115.5q0 -61 -32 -100q3 -55 171.5 -186.5t309.5 -174.5q111 38 210 90t233 150q89 65 127 82t72 17q291 0 504 -22.5t481 -100.5q159 -46 264.5 -81.5t131.5 -58.5t26 -72zM2479 598q0 42 -65 91 t-171 91q-37 -46 -100 -96q22 -88 116 -88q20 0 20 -20q0 -26 -20 -26q-181 0 -256 -12q80 -26 181.5 -45t158.5 -19q50 27 93 67t43 57zM3172 818q0 40 -52 55l-62 20q-361 118 -504 147.5t-324 44t-411 14.5q-26 0 -58 -15.5t-111 -74.5q-141 -106 -247.5 -160t-224.5 -90 q-72 -22 -123.5 -135.5t-51.5 -263.5q0 -65 45.5 -104.5t122.5 -39.5q89 0 183 46t225 165q59 53 70 53q88 -90 209 -139t257 -49q29 0 49.5 43t20.5 90q0 31 -10 31q-76 0 -186.5 41t-110.5 74q0 16 11 33q30 47 43 109.5t13 199.5q0 12 28 12q26 0 26 -12q0 -142 -18 -235 q45 23 110 83.5t98 108.5q238 -45 468 -74.5t343 -29.5q94 0 133 11.5t39 40.5zM2067 206q0 46 -30 46q-45 0 -146 20.5t-126 36.5q-13 9 -26 9q-28 0 -28 -28q0 -44 117.5 -87t208.5 -43q30 0 30 46zM2031 92q0 28 -44 28q-48 0 -126.5 24t-119.5 52q-9 6 -16 6 q-22 0 -22 -22q0 -35 84 -87.5t158 -52.5q86 0 86 52zM908 618q-86 180 -114 359q-135 115 -138 162q-12 -39 -12 -102q0 -56 25.5 -148t58.5 -163q-87 -6 -162.5 -35t-178.5 -106q-54 -41 -79 -53q25 -5 52.5 -29.5t84.5 -101.5q104 -141 177 -177q-48 -50 -80 -117.5 t-32 -126.5q0 -45 24 -123q20 -62 24 -97q38 51 118 100q-22 84 -22 120q0 73 49.5 161.5t112.5 132.5q-72 27 -135 80t-147 166q181 98 374 98z" />
<glyph unicode="&#xe000;" horiz-adv-x="500" d="M0 0v0v0v0v0z" />
<glyph unicode="&#xf030;" horiz-adv-x="3124" d="M3136 690q0 -32 -14 -32q-324 0 -1050 -35q-408 -19 -511 -19t-511 19q-726 35 -1050 35q-14 0 -14 32q0 34 14 34q324 0 1050 35q408 19 511 19t511 -19q726 -35 1050 -35q14 0 14 -34z" />
<glyph unicode="&#xf031;" d="M2031 1599q0 -22 -5.5 -27t-26.5 -5t-26.5 5t-5.5 27q0 21 5.5 26.5t26.5 5.5t26.5 -5.5t5.5 -26.5zM1873 1441q0 -22 -5.5 -27t-26.5 -5t-27.5 4.5t-6.5 27.5q0 21 6 26.5t28 5.5q21 0 26.5 -5.5t5.5 -26.5zM1713 1281q0 -21 -5.5 -26.5t-26.5 -5.5t-26.5 5.5t-5.5 26.5 q0 22 5.5 27t26.5 5t26.5 -5t5.5 -27zM1555 1123q0 -21 -5.5 -26.5t-26.5 -5.5t-26.5 5.5t-5.5 26.5t5.5 26.5t26.5 5.5t26.5 -5.5t5.5 -26.5zM1397 965q0 -24 -6 -28t-26 -4q-22 0 -28 5t-6 27q0 21 5.5 26.5t28.5 5.5q21 0 26.5 -5.5t5.5 -26.5zM1999 244 q0 -90 -57.5 -153t-152.5 -63q-97 0 -152.5 67.5t-55.5 178.5q0 48 17 86t51 64.5t46 26.5q10 0 18 -12t8 -25q0 -12 -8 -16q-56 -28 -56 -60q0 -28 19.5 -44t96.5 -38q58 -16 58 -68q0 -36 -18 -60q13 -20 36 -20q38 0 62 36t24 100q0 143 -125 235.5t-319 92.5h-160 q-16 0 -16 28t16 28h160q194 0 319 92t125 235q0 64 -24 100t-62 36q-23 0 -36 -20q18 -24 18 -60q0 -52 -58 -68q-77 -21 -96.5 -37t-19.5 -44q0 -32 56 -60q8 -4 8 -17t-8 -25t-18 -12q-12 0 -46 26.5t-51 64.5t-17 86q0 112 55.5 179t152.5 67q95 0 152.5 -63t57.5 -153 q0 -120 -86.5 -216.5t-235.5 -138.5q149 -43 235.5 -139t86.5 -217zM1569 1389q0 -96 -67 -152t-177 -56q-49 0 -86.5 17t-64 51t-26.5 47q0 9 11 17t24 8t17 -8q27 -56 61 -56q29 0 45 20t35 96q15 58 70 58q35 0 60 -16q20 10 20 34q0 39 -36.5 62.5t-101.5 23.5 q-142 0 -234 -124.5t-92 -319.5v-160q0 -16 -28 -16t-28 16v160q0 194 -92 319t-235 125q-64 0 -100 -24t-36 -62q0 -24 20 -34q25 16 60 16q52 0 68 -58q21 -77 37 -96.5t45 -19.5q32 0 59 56q4 8 17 8t24.5 -8.5t11.5 -17.5q0 -11 -26.5 -45.5t-64 -51.5t-85.5 -17 q-111 0 -178.5 56t-67.5 152q0 95 63 152.5t153 57.5q120 0 216.5 -86t138.5 -236q41 149 137.5 235.5t216.5 86.5q91 0 153.5 -57t62.5 -153zM1237 806q0 -21 -5.5 -26.5t-26.5 -5.5t-26.5 5.5t-5.5 26.5q0 22 5.5 27t26.5 5q20 0 26 -4t6 -28zM32 1599q0 -22 -5.5 -27 t-26.5 -5t-26.5 5t-5.5 27q0 21 5.5 26.5t26.5 5.5t26.5 -5.5t5.5 -26.5zM190 1441q0 -22 -5.5 -27t-26.5 -5t-26.5 5t-5.5 27q0 21 5.5 26.5t26.5 5.5t26.5 -5.5t5.5 -26.5zM508 1123q0 -21 -5.5 -26.5t-26.5 -5.5t-26.5 5.5t-5.5 26.5t5.5 26.5t26.5 5.5t26.5 -5.5 t5.5 -26.5zM666 965q0 -22 -5.5 -27t-26.5 -5q-20 0 -26 4t-6 28q0 21 5.5 26.5t26.5 5.5t26.5 -5.5t5.5 -26.5zM1099 540q0 -14 -12.5 -27t-27.5 -13q-6 0 -21 7q-23 11 -39 11q-17 0 -39 -11q-14 -7 -21 -7q-14 0 -26.5 13t-12.5 27q0 7 7 21q10 23 10 39t-10 38 q-7 15 -7 22q0 14 12.5 27t26.5 13q7 0 21 -7q22 -11 39 -11q16 0 39 11q15 7 21 7q15 0 27.5 -13.5t12.5 -26.5q0 -7 -7 -22q-11 -22 -11 -38t11 -39q7 -14 7 -21zM1237 394q0 -24 -6 -28t-26 -4q-21 0 -26.5 5t-5.5 27q0 21 5.5 26.5t26.5 5.5t26.5 -5.5t5.5 -26.5z M1555 76q0 -21 -5.5 -26.5t-26.5 -5.5t-26.5 5.5t-5.5 26.5t5.5 26.5t26.5 5.5t26.5 -5.5t5.5 -26.5zM1713 -82q0 -22 -5.5 -27t-26.5 -5t-26.5 5t-5.5 27q0 21 5.5 26.5t26.5 5.5t26.5 -5.5t5.5 -26.5zM2031 -400q0 -22 -5.5 -27t-26.5 -5t-26.5 5t-5.5 27q0 21 5.5 26.5 t26.5 5.5t26.5 -5.5t5.5 -26.5zM350 1281q0 -21 -6 -26.5t-28 -5.5q-21 0 -26.5 5.5t-5.5 26.5q0 22 5.5 27t26.5 5t27.5 -4t6.5 -28zM826 806q0 -21 -5.5 -26.5t-28.5 -5.5q-21 0 -26.5 5.5t-5.5 26.5q0 24 6 28t26 4q22 0 28 -5t6 -27zM1397 234q0 -21 -5.5 -26.5 t-26.5 -5.5q-22 0 -28 5.5t-6 26.5q0 22 6 27t28 5q20 0 26 -4t6 -28zM1873 -242q0 -21 -5.5 -26.5t-26.5 -5.5q-22 0 -28 5.5t-6 26.5q0 23 6.5 27.5t27.5 4.5t26.5 -5t5.5 -27zM826 394q0 -23 -6 -27.5t-28 -4.5q-20 0 -26 4t-6 28q0 21 5.5 26.5t26.5 5.5q22 0 28 -5.5 t6 -26.5zM684 600q0 -28 -16 -28h-160q-195 0 -319.5 -92t-124.5 -236q0 -64 23.5 -100t62.5 -36q24 0 34 20q-16 26 -16 60q0 52 58 68q77 22 96.5 38t19.5 44q0 31 -58 60q-6 3 -6 14q0 13 8 26t18 13q12 0 46 -26.5t51 -64.5t17 -86q0 -111 -56.5 -178.5t-153.5 -67.5 q-95 0 -151.5 62.5t-56.5 153.5q0 121 86 217t236 139q-150 42 -236 138.5t-86 216.5q0 91 56.5 153.5t151.5 62.5q97 0 153.5 -67.5t56.5 -178.5q0 -48 -17 -86t-51 -64.5t-46 -26.5q-10 0 -18 13t-8 27q0 10 6 13q58 30 58 61q0 28 -19.5 44t-96.5 37q-58 16 -58 68 q0 35 16 60q-10 20 -34 20q-39 0 -62.5 -35.5t-23.5 -100.5q0 -143 124.5 -235t319.5 -92h160q16 0 16 -28zM1569 -190q0 -95 -62.5 -152.5t-153.5 -57.5q-120 0 -216.5 87t-137.5 235q-42 -149 -138.5 -235.5t-216.5 -86.5q-90 0 -153 57.5t-63 152.5q0 96 67.5 152 t178.5 56q48 0 85.5 -17t64 -51.5t26.5 -45.5q0 -8 -11.5 -16.5t-24.5 -8.5t-16 7q-28 56 -60 56q-29 0 -45 -19.5t-37 -96.5q-16 -58 -68 -58q-35 0 -60 16q-20 -10 -20 -34q0 -38 36 -62t100 -24q143 0 235 125t92 319v160q0 16 28 16t28 -16v-160q0 -195 92 -319.5 t234 -124.5q65 0 101.5 24t36.5 62q0 24 -20 34q-25 -16 -60 -16q-55 0 -70 58q-19 76 -35 96t-45 20q-34 0 -62 -56q-3 -7 -16 -7t-24 8t-11 17q0 12 26.5 46t64 51t86.5 17q110 0 177 -56t67 -152zM666 234q0 -21 -5.5 -26.5t-26.5 -5.5t-26.5 5.5t-5.5 26.5q0 24 6 28 t26 4q21 0 26.5 -5t5.5 -27zM508 76q0 -21 -5.5 -26.5t-26.5 -5.5t-26.5 5.5t-5.5 26.5t5.5 26.5t26.5 5.5t26.5 -5.5t5.5 -26.5zM350 -82q0 -23 -6.5 -27.5t-27.5 -4.5t-26.5 5t-5.5 27q0 21 5.5 26.5t26.5 5.5q22 0 28 -5.5t6 -26.5zM190 -242q0 -21 -5.5 -26.5 t-26.5 -5.5t-26.5 5.5t-5.5 26.5q0 22 5.5 27t26.5 5t26.5 -5t5.5 -27zM32 -400q0 -22 -5.5 -27t-26.5 -5t-26.5 5t-5.5 27q0 21 5.5 26.5t26.5 5.5t26.5 -5.5t5.5 -26.5z" />
<glyph unicode="&#xf032;" d="M2031 1599q0 -22 -5.5 -27t-26.5 -5t-26.5 5t-5.5 27q0 21 5.5 26.5t26.5 5.5t26.5 -5.5t5.5 -26.5zM1873 1441q0 -22 -5.5 -27t-26.5 -5t-27.5 4.5t-6.5 27.5q0 21 6 26.5t28 5.5q21 0 26.5 -5.5t5.5 -26.5zM1713 1281q0 -21 -5.5 -26.5t-26.5 -5.5t-26.5 5.5t-5.5 26.5 q0 22 5.5 27t26.5 5t26.5 -5t5.5 -27zM1555 1123q0 -21 -5.5 -26.5t-26.5 -5.5t-26.5 5.5t-5.5 26.5t5.5 26.5t26.5 5.5t26.5 -5.5t5.5 -26.5zM1245 1291q-111 0 -178.5 56.5t-67.5 153.5q0 -97 -67 -153.5t-178 -56.5q-49 0 -86.5 17.5t-64 52t-26.5 46.5q0 8 13 16.5 t25 8.5q11 0 15 -7q29 -58 60 -58q27 0 43 19.5t38 96.5q16 58 69 58q31 0 61 -23q18 -13 28 -13q42 0 42 78q0 16 28 16t28 -16q0 -78 40 -78q11 0 28 13q31 23 62 23q56 0 71 -58q19 -76 35.5 -96t45.5 -20q31 0 60 58q4 7 15 7q12 0 25 -8.5t13 -16.5q0 -12 -26.5 -46.5 t-64 -52t-86.5 -17.5zM1999 600q0 -28 -16 -28q-78 0 -78 -42q0 -11 13 -28q23 -30 23 -60q0 -55 -58 -71q-76 -20 -96 -35.5t-20 -45.5q0 -31 58 -60q6 -3 6 -14q0 -13 -8.5 -26t-17.5 -13q-11 0 -45.5 27t-51.5 64t-17 86q0 111 56 178.5t154 67.5q-98 0 -154 67t-56 179 q0 48 17 85t51.5 64t45.5 27q9 0 17.5 -12.5t8.5 -26.5q0 -10 -6 -13q-58 -30 -58 -60q0 -31 20 -46t96 -36q58 -16 58 -70q0 -31 -23 -60q-13 -18 -13 -28q0 -42 78 -42q16 0 16 -28zM1397 965q0 -24 -6 -28t-26 -4q-22 0 -28 5t-6 27q0 21 5.5 26.5t28.5 5.5 q21 0 26.5 -5.5t5.5 -26.5zM1083 1141q0 -43 -24 -115q-32 -93 -32 -164q0 -16 -28 -16t-28 16q0 71 -33 164q-25 72 -25 115q0 30 29 50q24 16 29 56q0 16 28 16t28 -16q6 -42 28 -57q28 -19 28 -49zM1661 600q0 -28 -16 -28q-38 -6 -55 -30q-19 -28 -49 -28q-43 0 -115 25 q-93 33 -165 33q-16 0 -16 28t16 28q72 0 165 33q72 25 115 25q30 0 50 -28q16 -24 54 -30q16 0 16 -28zM1237 806q0 -21 -5.5 -26.5t-26.5 -5.5t-26.5 5.5t-5.5 26.5q0 22 5.5 27t26.5 5q20 0 26 -4t6 -28zM32 1599q0 -22 -5.5 -27t-26.5 -5t-26.5 5t-5.5 27q0 21 5.5 26.5 t26.5 5.5t26.5 -5.5t5.5 -26.5zM190 1441q0 -22 -5.5 -27t-26.5 -5t-26.5 5t-5.5 27q0 21 5.5 26.5t26.5 5.5t26.5 -5.5t5.5 -26.5zM508 1123q0 -21 -5.5 -26.5t-26.5 -5.5t-26.5 5.5t-5.5 26.5t5.5 26.5t26.5 5.5t26.5 -5.5t5.5 -26.5zM666 965q0 -22 -5.5 -27t-26.5 -5 q-20 0 -26 4t-6 28q0 21 5.5 26.5t26.5 5.5t26.5 -5.5t5.5 -26.5zM1099 540q0 -14 -12.5 -27t-27.5 -13q-6 0 -21 7q-23 11 -39 11q-17 0 -39 -11q-14 -7 -21 -7q-14 0 -26.5 13t-12.5 27q0 7 7 21q10 23 10 39t-10 38q-7 15 -7 22q0 14 12.5 27t26.5 13q7 0 21 -7 q22 -11 39 -11q16 0 39 11q15 7 21 7q15 0 27.5 -13.5t12.5 -26.5q0 -7 -7 -22q-11 -22 -11 -38t11 -39q7 -14 7 -21zM1237 394q0 -24 -6 -28t-26 -4q-21 0 -26.5 5t-5.5 27q0 21 5.5 26.5t26.5 5.5t26.5 -5.5t5.5 -26.5zM1555 76q0 -21 -5.5 -26.5t-26.5 -5.5t-26.5 5.5 t-5.5 26.5t5.5 26.5t26.5 5.5t26.5 -5.5t5.5 -26.5zM1713 -82q0 -22 -5.5 -27t-26.5 -5t-26.5 5t-5.5 27q0 21 5.5 26.5t26.5 5.5t26.5 -5.5t5.5 -26.5zM2031 -400q0 -22 -5.5 -27t-26.5 -5t-26.5 5t-5.5 27q0 21 5.5 26.5t26.5 5.5t26.5 -5.5t5.5 -26.5zM350 1281 q0 -21 -6 -26.5t-28 -5.5q-21 0 -26.5 5.5t-5.5 26.5q0 22 5.5 27t26.5 5t27.5 -4t6.5 -28zM826 806q0 -21 -5.5 -26.5t-28.5 -5.5q-21 0 -26.5 5.5t-5.5 26.5q0 24 6 28t26 4q22 0 28 -5t6 -27zM1397 234q0 -21 -5.5 -26.5t-26.5 -5.5q-22 0 -28 5.5t-6 26.5q0 22 6 27 t28 5q20 0 26 -4t6 -28zM1873 -242q0 -21 -5.5 -26.5t-26.5 -5.5q-22 0 -28 5.5t-6 26.5q0 23 6.5 27.5t27.5 4.5t26.5 -5t5.5 -27zM826 394q0 -23 -6 -27.5t-28 -4.5q-20 0 -26 4t-6 28q0 21 5.5 26.5t26.5 5.5q22 0 28 -5.5t6 -26.5zM754 600q0 -28 -16 -28 q-72 0 -165 -33q-72 -25 -115 -25q-32 0 -51 27q-17 25 -55 31q-16 0 -16 28t16 28q38 5 55 30q19 28 51 28q43 0 115 -25q93 -33 165 -33q16 0 16 -28zM1083 58q0 -30 -28 -49q-22 -15 -28 -57q0 -16 -28 -16t-28 16q-5 40 -29 57q-29 19 -29 49q0 43 25 115q33 93 33 165 q0 16 28 16t28 -16q0 -72 32 -165q24 -72 24 -115zM666 234q0 -21 -5.5 -26.5t-26.5 -5.5t-26.5 5.5t-5.5 26.5q0 24 6 28t26 4q21 0 26.5 -5t5.5 -27zM1422 -208q0 -8 -13 -16.5t-25 -8.5q-11 0 -15 7q-29 58 -60 58q-29 0 -45.5 -20t-35.5 -96q-15 -58 -71 -58 q-31 0 -62 23q-17 13 -28 13q-40 0 -40 -78q0 -16 -28 -16t-28 16q0 78 -42 78q-10 0 -28 -13q-30 -23 -61 -23q-53 0 -69 58q-22 77 -38 96.5t-43 19.5q-31 0 -60 -58q-4 -7 -15 -7q-12 0 -25 8.5t-13 16.5q0 12 26.5 47t64 52t86.5 17q111 0 178 -56t67 -154 q0 98 67.5 154t178.5 56q49 0 86.5 -17t64 -52t26.5 -47zM308 354q0 -49 -17.5 -86t-52 -64t-46.5 -27q-9 0 -17.5 12t-8.5 25q0 12 8 16q58 29 58 60q0 27 -19.5 43t-96.5 38q-58 16 -58 71q0 30 21 60q13 17 13 28q0 42 -76 42q-16 0 -16 28t16 28q76 0 76 42q0 10 -13 28 q-21 29 -21 60q0 55 58 71q77 21 96.5 37t19.5 44q0 30 -58 59q-8 4 -8 17q0 12 8.5 24t17.5 12q12 0 46.5 -26.5t52 -64t17.5 -85.5q0 -112 -56.5 -179t-153.5 -67q97 0 153.5 -67.5t56.5 -178.5zM508 76q0 -21 -5.5 -26.5t-26.5 -5.5t-26.5 5.5t-5.5 26.5t5.5 26.5 t26.5 5.5t26.5 -5.5t5.5 -26.5zM350 -82q0 -23 -6.5 -27.5t-27.5 -4.5t-26.5 5t-5.5 27q0 21 5.5 26.5t26.5 5.5q22 0 28 -5.5t6 -26.5zM190 -242q0 -21 -5.5 -26.5t-26.5 -5.5t-26.5 5.5t-5.5 26.5q0 22 5.5 27t26.5 5t26.5 -5t5.5 -27zM32 -400q0 -22 -5.5 -27t-26.5 -5 t-26.5 5t-5.5 27q0 21 5.5 26.5t26.5 5.5t26.5 -5.5t5.5 -26.5z" />
<glyph unicode="&#xf033;" d="M2031 1599q0 -22 -5.5 -27t-26.5 -5t-26.5 5t-5.5 27q0 21 5.5 26.5t26.5 5.5t26.5 -5.5t5.5 -26.5zM1873 1441q0 -22 -5.5 -27t-26.5 -5t-27.5 4.5t-6.5 27.5q0 21 6 26.5t28 5.5q21 0 26.5 -5.5t5.5 -26.5zM1713 1281q0 -21 -5.5 -26.5t-26.5 -5.5t-26.5 5.5t-5.5 26.5 q0 22 5.5 27t26.5 5t26.5 -5t5.5 -27zM1555 1123q0 -21 -5.5 -26.5t-26.5 -5.5t-26.5 5.5t-5.5 26.5t5.5 26.5t26.5 5.5t26.5 -5.5t5.5 -26.5zM1397 965q0 -24 -6 -28t-26 -4q-22 0 -28 5t-6 27q0 21 5.5 26.5t28.5 5.5q21 0 26.5 -5.5t5.5 -26.5zM1237 806 q0 -21 -5.5 -26.5t-26.5 -5.5t-26.5 5.5t-5.5 26.5q0 22 5.5 27t26.5 5q20 0 26 -4t6 -28zM32 1599q0 -22 -5.5 -27t-26.5 -5t-26.5 5t-5.5 27q0 21 5.5 26.5t26.5 5.5t26.5 -5.5t5.5 -26.5zM190 1441q0 -22 -5.5 -27t-26.5 -5t-26.5 5t-5.5 27q0 21 5.5 26.5t26.5 5.5 t26.5 -5.5t5.5 -26.5zM508 1123q0 -21 -5.5 -26.5t-26.5 -5.5t-26.5 5.5t-5.5 26.5t5.5 26.5t26.5 5.5t26.5 -5.5t5.5 -26.5zM666 965q0 -22 -5.5 -27t-26.5 -5q-20 0 -26 4t-6 28q0 21 5.5 26.5t26.5 5.5t26.5 -5.5t5.5 -26.5zM1099 540q0 -14 -12.5 -27t-27.5 -13 q-6 0 -21 7q-23 11 -39 11q-17 0 -39 -11q-14 -7 -21 -7q-14 0 -26.5 13t-12.5 27q0 7 7 21q10 23 10 39t-10 38q-7 15 -7 22q0 14 12.5 27t26.5 13q7 0 21 -7q22 -11 39 -11q16 0 39 11q15 7 21 7q15 0 27.5 -13.5t12.5 -26.5q0 -7 -7 -22q-11 -22 -11 -38t11 -39 q7 -14 7 -21zM1237 394q0 -24 -6 -28t-26 -4q-21 0 -26.5 5t-5.5 27q0 21 5.5 26.5t26.5 5.5t26.5 -5.5t5.5 -26.5zM1555 76q0 -21 -5.5 -26.5t-26.5 -5.5t-26.5 5.5t-5.5 26.5t5.5 26.5t26.5 5.5t26.5 -5.5t5.5 -26.5zM1713 -82q0 -22 -5.5 -27t-26.5 -5t-26.5 5t-5.5 27 q0 21 5.5 26.5t26.5 5.5t26.5 -5.5t5.5 -26.5zM2031 -400q0 -22 -5.5 -27t-26.5 -5t-26.5 5t-5.5 27q0 21 5.5 26.5t26.5 5.5t26.5 -5.5t5.5 -26.5zM350 1281q0 -21 -6 -26.5t-28 -5.5q-21 0 -26.5 5.5t-5.5 26.5q0 22 5.5 27t26.5 5t27.5 -4t6.5 -28zM826 806 q0 -21 -5.5 -26.5t-28.5 -5.5q-21 0 -26.5 5.5t-5.5 26.5q0 24 6 28t26 4q22 0 28 -5t6 -27zM1397 234q0 -21 -5.5 -26.5t-26.5 -5.5q-22 0 -28 5.5t-6 26.5q0 22 6 27t28 5q20 0 26 -4t6 -28zM1873 -242q0 -21 -5.5 -26.5t-26.5 -5.5q-22 0 -28 5.5t-6 26.5q0 23 6.5 27.5 t27.5 4.5t26.5 -5t5.5 -27zM826 394q0 -23 -6 -27.5t-28 -4.5q-20 0 -26 4t-6 28q0 21 5.5 26.5t26.5 5.5q22 0 28 -5.5t6 -26.5zM666 234q0 -21 -5.5 -26.5t-26.5 -5.5t-26.5 5.5t-5.5 26.5q0 24 6 28t26 4q21 0 26.5 -5t5.5 -27zM508 76q0 -21 -5.5 -26.5t-26.5 -5.5 t-26.5 5.5t-5.5 26.5t5.5 26.5t26.5 5.5t26.5 -5.5t5.5 -26.5zM350 -82q0 -23 -6.5 -27.5t-27.5 -4.5t-26.5 5t-5.5 27q0 21 5.5 26.5t26.5 5.5q22 0 28 -5.5t6 -26.5zM190 -242q0 -21 -5.5 -26.5t-26.5 -5.5t-26.5 5.5t-5.5 26.5q0 22 5.5 27t26.5 5t26.5 -5t5.5 -27z M32 -400q0 -22 -5.5 -27t-26.5 -5t-26.5 5t-5.5 27q0 21 5.5 26.5t26.5 5.5t26.5 -5.5t5.5 -26.5zM1083 1141q0 -43 -24 -115q-32 -93 -32 -164q0 -16 -28 -16t-28 16q0 71 -33 164q-25 72 -25 115q0 30 29 50q24 16 29 56q0 16 28 16t28 -16q6 -42 28 -57q28 -19 28 -49z M1661 600q0 -28 -16 -28q-38 -6 -55 -30q-19 -28 -49 -28q-43 0 -115 25q-93 33 -165 33q-16 0 -16 28t16 28q72 0 165 33q72 25 115 25q30 0 50 -28q16 -24 54 -30q16 0 16 -28zM754 600q0 -28 -16 -28q-72 0 -165 -33q-72 -25 -115 -25q-32 0 -51 27q-17 25 -55 31 q-16 0 -16 28t16 28q38 5 55 30q19 28 51 28q43 0 115 -25q93 -33 165 -33q16 0 16 -28zM1083 58q0 -30 -28 -49q-22 -15 -28 -57q0 -16 -28 -16t-28 16q-5 40 -29 57q-29 19 -29 49q0 43 25 115q33 93 33 165q0 16 28 16t28 -16q0 -72 32 -165q24 -72 24 -115z" />
<glyph unicode="&#xf034;" d="M2031 1599q0 -22 -5.5 -27t-26.5 -5t-26.5 5t-5.5 27q0 21 5.5 26.5t26.5 5.5t26.5 -5.5t5.5 -26.5zM1873 1441q0 -22 -5.5 -27t-26.5 -5t-27.5 4.5t-6.5 27.5q0 21 6 26.5t28 5.5q21 0 26.5 -5.5t5.5 -26.5zM1713 1281q0 -21 -5.5 -26.5t-26.5 -5.5t-26.5 5.5t-5.5 26.5 q0 22 5.5 27t26.5 5t26.5 -5t5.5 -27zM1555 1123q0 -21 -5.5 -26.5t-26.5 -5.5t-26.5 5.5t-5.5 26.5t5.5 26.5t26.5 5.5t26.5 -5.5t5.5 -26.5zM1397 965q0 -24 -6 -28t-26 -4q-22 0 -28 5t-6 27q0 21 5.5 26.5t28.5 5.5q21 0 26.5 -5.5t5.5 -26.5zM1237 806 q0 -21 -5.5 -26.5t-26.5 -5.5t-26.5 5.5t-5.5 26.5q0 22 5.5 27t26.5 5q20 0 26 -4t6 -28zM32 1599q0 -22 -5.5 -27t-26.5 -5t-26.5 5t-5.5 27q0 21 5.5 26.5t26.5 5.5t26.5 -5.5t5.5 -26.5zM190 1441q0 -22 -5.5 -27t-26.5 -5t-26.5 5t-5.5 27q0 21 5.5 26.5t26.5 5.5 t26.5 -5.5t5.5 -26.5zM508 1123q0 -21 -5.5 -26.5t-26.5 -5.5t-26.5 5.5t-5.5 26.5t5.5 26.5t26.5 5.5t26.5 -5.5t5.5 -26.5zM666 965q0 -22 -5.5 -27t-26.5 -5q-20 0 -26 4t-6 28q0 21 5.5 26.5t26.5 5.5t26.5 -5.5t5.5 -26.5zM1099 540q0 -14 -12.5 -27t-27.5 -13 q-6 0 -21 7q-23 11 -39 11q-17 0 -39 -11q-14 -7 -21 -7q-14 0 -26.5 13t-12.5 27q0 7 7 21q10 23 10 39t-10 38q-7 15 -7 22q0 14 12.5 27t26.5 13q7 0 21 -7q22 -11 39 -11q16 0 39 11q15 7 21 7q15 0 27.5 -13.5t12.5 -26.5q0 -7 -7 -22q-11 -22 -11 -38t11 -39 q7 -14 7 -21zM1237 394q0 -24 -6 -28t-26 -4q-21 0 -26.5 5t-5.5 27q0 21 5.5 26.5t26.5 5.5t26.5 -5.5t5.5 -26.5zM1555 76q0 -21 -5.5 -26.5t-26.5 -5.5t-26.5 5.5t-5.5 26.5t5.5 26.5t26.5 5.5t26.5 -5.5t5.5 -26.5zM1713 -82q0 -22 -5.5 -27t-26.5 -5t-26.5 5t-5.5 27 q0 21 5.5 26.5t26.5 5.5t26.5 -5.5t5.5 -26.5zM2031 -400q0 -22 -5.5 -27t-26.5 -5t-26.5 5t-5.5 27q0 21 5.5 26.5t26.5 5.5t26.5 -5.5t5.5 -26.5zM350 1281q0 -21 -6 -26.5t-28 -5.5q-21 0 -26.5 5.5t-5.5 26.5q0 22 5.5 27t26.5 5t27.5 -4t6.5 -28zM826 806 q0 -21 -5.5 -26.5t-28.5 -5.5q-21 0 -26.5 5.5t-5.5 26.5q0 24 6 28t26 4q22 0 28 -5t6 -27zM1397 234q0 -21 -5.5 -26.5t-26.5 -5.5q-22 0 -28 5.5t-6 26.5q0 22 6 27t28 5q20 0 26 -4t6 -28zM1873 -242q0 -21 -5.5 -26.5t-26.5 -5.5q-22 0 -28 5.5t-6 26.5q0 23 6.5 27.5 t27.5 4.5t26.5 -5t5.5 -27zM826 394q0 -23 -6 -27.5t-28 -4.5q-20 0 -26 4t-6 28q0 21 5.5 26.5t26.5 5.5q22 0 28 -5.5t6 -26.5zM666 234q0 -21 -5.5 -26.5t-26.5 -5.5t-26.5 5.5t-5.5 26.5q0 24 6 28t26 4q21 0 26.5 -5t5.5 -27zM508 76q0 -21 -5.5 -26.5t-26.5 -5.5 t-26.5 5.5t-5.5 26.5t5.5 26.5t26.5 5.5t26.5 -5.5t5.5 -26.5zM350 -82q0 -23 -6.5 -27.5t-27.5 -4.5t-26.5 5t-5.5 27q0 21 5.5 26.5t26.5 5.5q22 0 28 -5.5t6 -26.5zM190 -242q0 -21 -5.5 -26.5t-26.5 -5.5t-26.5 5.5t-5.5 26.5q0 22 5.5 27t26.5 5t26.5 -5t5.5 -27z M32 -400q0 -22 -5.5 -27t-26.5 -5t-26.5 5t-5.5 27q0 21 5.5 26.5t26.5 5.5t26.5 -5.5t5.5 -26.5z" />
<glyph unicode="&#xf038;" horiz-adv-x="3124" d="M3136 690q0 -32 -14 -32q-704 0 -1170 -46q-143 -14 -211 -14q-52 0 -102 39q-45 35 -78 35t-77 -35q-50 -39 -103 -39q-68 0 -210 14q-466 46 -1171 46q-14 0 -14 32q0 34 14 34q705 0 1171 48q142 14 210 14q50 0 103 -42q42 -32 77 -32q36 0 77 33q53 41 103 41 q68 0 211 -15q466 -47 1170 -47q14 0 14 -34z" />
<glyph unicode="&#xf039;" horiz-adv-x="3124" d="M3136 690q0 -32 -14 -32q-613 0 -1031.5 -29.5t-529.5 -80.5q-110 51 -528.5 80.5t-1032.5 29.5q-14 0 -14 32q0 34 14 34q614 0 1032.5 29t528.5 81q111 -52 529.5 -81t1031.5 -29q14 0 14 -34z" />
<glyph unicode="&#xf041;" d="M2027 -400q0 -28 -14 -28h-14q-591 0 -1086 246q-398 -246 -913 -246h-12q-16 0 -16 28t16 28h12q146 0 287 79t339 285q-255 187 -394.5 424.5t-139.5 485.5q0 302 173.5 499.5t436.5 197.5q233 0 377 -142.5t144 -369.5q0 -170 -112.5 -276.5t-272.5 -106.5 q-84 0 -146.5 31t-62.5 50q0 12 11.5 23.5t23.5 11.5l8 -1q45 -21 98 -21q81 0 131 55.5t50 149.5q0 102 -67 162t-184 60q-171 0 -261.5 -125t-90.5 -364q0 -155 93.5 -336t256.5 -332q75 88 226.5 232.5t278.5 221.5q242 146 510 146q82 0 134.5 -6.5t151.5 -30.5l12 -3 q16 0 16 -28t-16 -28h-12q-123 0 -245 -66t-358 -293q-252 -240 -413 -349q425 -236 1016 -236h14q14 0 14 -28zM1113 1055q0 178 -112.5 287t-300.5 109q-226 0 -366 -168t-140 -447q0 -191 101 -383.5t287 -356.5q-140 152 -220 325.5t-80 316.5q0 266 110 409.5 t308 143.5q144 0 229.5 -79t85.5 -207q0 -153 -104 -225q96 22 149 94t53 181zM1813 596q-151 -8 -278 -50t-241 -121.5t-308 -277.5q-214 -217 -352.5 -317.5t-293.5 -169.5q167 30 319 94t296.5 165t377.5 324q191 184 289 252t191 101z" />
<glyph unicode="&#xf042;" d="M2040 -400q0 -28 -16 -28h-12q-515 0 -914 246q-495 -246 -1085 -246h-14q-14 0 -14 28t14 28h14q591 0 1015 236q-161 109 -412 349q-236 226 -358 292.5t-245 66.5h-12q-16 0 -16 28t16 29l12 1q97 25 149 31.5t137 6.5q270 0 511 -147q126 -77 279 -223t225 -230 q163 151 256.5 332t93.5 336q0 239 -90.5 364t-261.5 125q-118 0 -185 -60t-67 -162q0 -94 50.5 -149.5t131.5 -55.5q53 0 98 21l8 1q11 0 23 -11.5t12 -23.5q0 -19 -62.5 -50t-146.5 -31q-160 0 -272.5 106.5t-112.5 276.5q0 227 144 369.5t377 142.5q263 0 436.5 -197.5 t173.5 -499.5q0 -248 -139.5 -485.5t-394.5 -424.5q198 -206 339 -285t287 -79h12q16 0 16 -28zM1818 836q0 279 -140 447t-366 168q-188 0 -300.5 -109t-112.5 -287q0 -109 53 -181t148 -94q-104 72 -104 225q0 128 86 207t230 79q197 0 307.5 -143.5t110.5 -409.5 q0 -143 -80 -316.5t-220 -325.5q186 164 287 356.5t101 383.5zM1672 -340q-155 69 -293.5 169.5t-352.5 317.5q-193 197 -306.5 276.5t-241 122t-279.5 50.5q93 -33 191 -101t289 -252q233 -223 377.5 -324t296.5 -165t319 -94z" />
<glyph unicode="&#xf043;" d="M2027 600q0 -28 -16 -29l-12 -1q-97 -25 -149 -31.5t-137 -6.5q-270 0 -511 146q-126 76 -277.5 220.5t-226.5 232.5q-163 -150 -256.5 -331.5t-93.5 -335.5q0 -240 90.5 -365t261.5 -125q117 0 184 60t67 162q0 95 -50 150.5t-131 55.5q-53 0 -97 -21q-4 -2 -9 -2 q-12 0 -23.5 12t-11.5 23q0 20 64 51t145 31q160 0 272.5 -107t112.5 -277q0 -227 -144 -369.5t-377 -142.5q-263 0 -436.5 198t-173.5 500q0 248 139.5 485t394.5 424q-198 207 -339 285.5t-287 78.5h-12q-16 0 -16 28t16 28h12q515 0 913 -246q495 246 1086 246h14 q14 0 14 -28t-14 -28h-14q-591 0 -1016 -236q161 -109 413 -349q237 -227 358 -292.5t245 -65.5h12q16 0 16 -28zM1813 604q-93 32 -191 100.5t-289 251.5q-233 224 -377.5 325t-296.5 164.5t-319 93.5q155 -69 293.5 -169.5t352.5 -317.5q195 -199 308.5 -278t241 -121 t277.5 -49zM1113 144q0 109 -53 181t-149 95q104 -73 104 -226q0 -128 -85.5 -207t-229.5 -79q-198 0 -308 144t-110 410q0 143 80 316.5t220 324.5q-186 -163 -287 -356t-101 -383q0 -279 140 -447.5t366 -168.5q188 0 300.5 109t112.5 287z" />
<glyph unicode="&#xf044;" d="M2040 1599q0 -28 -16 -28h-12q-146 0 -287 -78.5t-339 -285.5q255 -187 394.5 -424t139.5 -485q0 -302 -173.5 -500t-436.5 -198q-233 0 -377 142.5t-144 369.5q0 170 112.5 277t272.5 107q81 0 145 -31t64 -51q0 -11 -12 -23t-23 -12q-5 0 -9 2q-44 21 -97 21 q-81 0 -131.5 -55.5t-50.5 -150.5q0 -102 67 -162t185 -60q171 0 261.5 125t90.5 365q0 154 -93.5 335.5t-256.5 331.5q-72 -84 -225 -230t-278 -222q-241 -147 -512 -147q-82 0 -134.5 6.5t-151.5 30.5l-12 3q-16 0 -16 28t16 28h12q124 0 245.5 65.5t357.5 292.5 q251 240 412 349q-424 236 -1015 236h-14q-14 0 -14 28t14 28h14q590 0 1085 -246q399 246 914 246h12q16 0 16 -28zM1672 1539q-167 -30 -319 -93.5t-296.5 -164.5t-377.5 -325q-191 -183 -289 -251.5t-191 -100.5q151 7 278.5 49t241.5 122t307 277q214 217 352.5 317.5 t293.5 169.5zM1818 364q0 190 -101 383t-287 356q140 -151 220 -324.5t80 -316.5q0 -266 -110.5 -410t-307.5 -144q-144 0 -230 79t-86 207q0 153 104 226q-95 -23 -148 -95t-53 -181q0 -178 112.5 -287t300.5 -109q226 0 366 168.5t140 447.5z" />
<glyph unicode="&#xf045;" d="M2027 -426q0 -16 -28 -16t-28 16v12q0 146 -78.5 287t-285.5 339q-187 -255 -424.5 -394.5t-484.5 -139.5q-303 0 -500.5 173.5t-197.5 436.5q0 234 142.5 378t369.5 144q170 0 277 -113t107 -273q0 -81 -31.5 -145t-50.5 -64q-12 0 -23.5 12t-11.5 23q0 5 2 9 q21 45 21 97q0 81 -56 131.5t-150 50.5q-102 0 -162 -67t-60 -185q0 -171 125 -261.5t365 -90.5q154 0 335 93.5t332 256.5q-85 72 -231 225t-222 279q-147 242 -147 511q0 82 6.5 134.5t30.5 151.5l3 12q0 16 28 16t28 -16v-12q0 -123 66.5 -245t292.5 -358 q240 -251 349 -412q236 424 236 1015v14q0 14 28 14t28 -14v-14q0 -590 -246 -1085q246 -399 246 -914v-12zM1939 -74q-30 168 -94 319.5t-165 296t-324 377.5q-183 192 -251.5 289.5t-101.5 190.5q8 -152 50.5 -279.5t122 -241t276.5 -306.5q217 -214 317.5 -352.5 t169.5 -293.5zM1503 168q-152 -140 -325.5 -220t-315.5 -80q-266 0 -410 110.5t-144 307.5q0 144 79 230t207 86q153 0 226 -104q-23 95 -95 148.5t-181 53.5q-178 0 -287 -113t-109 -301q0 -226 168.5 -366t447.5 -140q190 0 382.5 101t356.5 287z" />
<glyph unicode="&#xf046;" d="M1999 288q0 -263 -198 -436.5t-500 -173.5q-247 0 -484.5 139.5t-424.5 394.5q-207 -198 -285.5 -339t-78.5 -287v-12q0 -16 -28 -16t-28 16v12q0 515 246 914q-246 495 -246 1085v14q0 14 28 14t28 -14v-14q0 -591 236 -1015q109 161 349 412q227 236 292.5 357.5 t65.5 245.5v12q0 16 28 16t29 -16l1 -12q25 -97 31.5 -149t6.5 -137q0 -271 -147 -512q-76 -125 -222 -278t-230 -225q151 -163 332 -256.5t335 -93.5q240 0 365 90.5t125 261.5q0 118 -60 185t-162 67q-95 0 -150.5 -50.5t-55.5 -131.5q0 -52 21 -97q2 -4 2 -9 q0 -11 -11.5 -23t-23.5 -12q-19 0 -50.5 64t-31.5 145q0 160 107 273t277 113q227 0 369.5 -144t142.5 -378zM1851 286q0 188 -109 301t-287 113q-109 0 -181 -53.5t-95 -148.5q73 104 226 104q128 0 207 -86t79 -230q0 -197 -144 -307.5t-410 -110.5q-142 0 -315.5 80 t-325.5 220q164 -186 356.5 -287t382.5 -101q279 0 447.5 140t168.5 366zM995 1399q-32 -93 -100.5 -190.5t-251.5 -289.5q-223 -233 -324.5 -377.5t-165 -296t-93.5 -319.5q69 155 169.5 293.5t317.5 352.5q197 193 277 307t122 241.5t49 278.5z" />
<glyph unicode="&#xf047;" d="M2027 -426q0 -14 -28 -14t-28 14v14q0 591 -236 1016q-109 -161 -349 -412q-227 -237 -293 -359t-66 -245v-12q0 -16 -28 -16t-29 16l-1 12q-25 97 -31.5 149.5t-6.5 136.5q0 162 51.5 310.5t158 294t369.5 391.5l21 20q-151 162 -332 255.5t-335 93.5q-240 0 -365 -90.5 t-125 -260.5q0 -118 60 -185t162 -67q94 0 150 50t56 132q0 52 -21 96q-2 4 -2 9q0 12 11.5 23.5t23.5 11.5q19 0 50.5 -63.5t31.5 -144.5q0 -161 -107 -273.5t-277 -112.5q-227 0 -369.5 144t-142.5 378q0 262 197.5 435.5t500.5 173.5q247 0 484.5 -139.5t424.5 -394.5 q207 199 285.5 340t78.5 286v12q0 16 28 16t28 -16v-12q0 -515 -246 -913q246 -495 246 -1086v-14zM1939 1247q-69 -155 -169.5 -293.5t-317.5 -351.5q-198 -195 -277.5 -308.5t-121.5 -241t-50 -278.5q33 94 101.5 191.5t251.5 288.5q223 233 324 377.5t165 296.5t94 319z M1503 1005q-164 186 -356.5 287t-382.5 101q-279 0 -447.5 -140t-168.5 -365q0 -189 109 -301.5t287 -112.5q109 0 181 53t95 149q-73 -104 -226 -104q-128 0 -207 85.5t-79 230.5q0 197 144 307t410 110q142 0 315.5 -80t325.5 -220z" />
<glyph unicode="&#xf048;" d="M1999 886q0 -234 -142.5 -378t-369.5 -144q-170 0 -277 112.5t-107 273.5q0 81 31.5 144.5t50.5 63.5q12 0 23.5 -11.5t11.5 -23.5q0 -5 -2 -9q-21 -44 -21 -96q0 -82 55.5 -132t150.5 -50q102 0 162 67t60 185q0 170 -125 260.5t-365 90.5q-154 0 -335 -93.5 t-332 -255.5l21 -20q263 -246 369.5 -391.5t157.5 -294t51 -310.5q0 -81 -6.5 -134t-30.5 -152l-3 -12q0 -16 -28 -16t-28 16v12q0 124 -65.5 245t-292.5 359q-240 251 -349 412q-236 -425 -236 -1016v-14q0 -14 -28 -14t-28 14v14q0 591 246 1086q-246 398 -246 913v12 q0 16 28 16t28 -16v-12q0 -145 78.5 -286t285.5 -340q187 255 424.5 394.5t484.5 139.5q302 0 500 -173.5t198 -435.5zM1851 888q0 225 -168.5 365t-447.5 140q-190 0 -382.5 -101t-356.5 -287q152 140 325.5 220t315.5 80q266 0 410 -110t144 -307q0 -145 -79 -230.5 t-207 -85.5q-153 0 -226 104q23 -96 95 -149t181 -53q178 0 287 112.5t109 301.5zM995 -226q-7 151 -49 278t-121.5 241t-277.5 309q-217 213 -317.5 351.5t-169.5 293.5q30 -167 93.5 -319t165 -296.5t324.5 -377.5q183 -191 251.5 -288.5t100.5 -191.5z" />
<glyph unicode="&#xf049;" d="M2028 -400q0 -28 -16 -28q-767 0 -1255 168q-346 -168 -744 -168h-12q-16 0 -16 28t16 28h12q375 0 666 142q-333 129 -505.5 340t-172.5 488q0 462 270.5 731.5t728.5 269.5q262 0 493 -127t369 -344t138 -454q0 -201 -100.5 -380.5t-278 -301.5t-375.5 -150 q-16 0 -16 28q0 24 16 28q196 50 308 205t112 377q0 307 -204.5 507t-523.5 200q-335 0 -524 -176t-189 -487q0 -226 140.5 -405.5t411.5 -296.5q166 101 265.5 237t99.5 253q0 152 -58 232t-166 80q-74 0 -116.5 -39t-42.5 -103q0 -61 31.5 -95.5t84.5 -34.5q31 0 64 14 q6 0 15 -8t9 -15q0 -12 -40 -31.5t-92 -19.5q-102 0 -174 68t-72 176q0 143 91.5 233.5t239.5 90.5q168 0 278 -125.5t110 -318.5q0 -172 -118.5 -335.5t-332.5 -288.5q449 -164 1159 -164q16 0 16 -28zM1866 596q0 223 -120 418.5t-325.5 308t-446.5 112.5 q-409 0 -646.5 -233t-237.5 -636q0 -326 263 -546q-192 228 -192 504q0 338 208 532.5t569 194.5q347 0 569.5 -218t222.5 -553q0 -266 -140 -434q134 95 205 236t71 314zM1240 374q0 177 -89 284.5t-233 107.5q-120 0 -191.5 -69.5t-71.5 -182.5q0 -75 58 -120 q-18 43 -18 88q0 92 60 149t163 57q137 0 212.5 -98.5t75.5 -277.5q0 -78 -48 -174q82 126 82 236z" />
<glyph unicode="&#xf04a;" d="M2015 -400q0 -28 -16 -28h-12q-398 0 -744 168q-488 -168 -1255 -168q-16 0 -16 28t16 28q710 0 1159 164q-214 125 -332.5 288.5t-118.5 335.5q0 193 110 318.5t277 125.5q149 0 240.5 -90.5t91.5 -233.5q0 -108 -72 -176t-174 -68q-52 0 -92 19.5t-40 31.5q0 7 9 15 t18 8q30 -14 61 -14q53 0 84.5 34.5t31.5 95.5q0 64 -42.5 103t-117.5 39q-107 0 -165 -80t-58 -232q0 -117 99.5 -253t265.5 -237q271 117 411.5 296.5t140.5 405.5q0 311 -189.5 487t-524.5 176q-319 0 -523 -200t-204 -507q0 -222 112 -377t308 -205q16 -4 16 -28 q0 -28 -16 -28q-198 28 -375.5 150t-278 301.5t-100.5 380.5q0 237 138 454t369 344t492 127q459 0 729.5 -269.5t270.5 -731.5q0 -277 -172.5 -488t-505.5 -340q291 -142 666 -142h12q16 0 16 -28zM1025 1435q-240 0 -445.5 -112.5t-325.5 -308t-120 -418.5q0 -173 71 -314 t205 -236q-140 168 -140 434q0 335 222.5 553t568.5 218q362 0 570 -194.5t208 -532.5q0 -276 -192 -504q263 220 263 546q0 403 -237.5 636t-647.5 233zM1345 514q0 113 -71.5 182.5t-192.5 69.5q-143 0 -232 -107.5t-89 -284.5q0 -110 82 -236q-48 96 -48 174 q0 179 75.5 277.5t211.5 98.5q104 0 164 -57t60 -149q0 -45 -18 -88q58 45 58 120z" />
<glyph unicode="&#xf04b;" d="M2028 1599q0 -28 -16 -28q-710 0 -1159 -164q214 -125 332.5 -288.5t118.5 -334.5q0 -194 -110 -319t-278 -125q-148 0 -239.5 90t-91.5 234q0 108 72 176t174 68q52 0 92 -19.5t40 -32.5q0 -7 -9 -15t-18 -7q-30 14 -61 14q-53 0 -84.5 -35t-31.5 -95q0 -65 42.5 -103.5 t116.5 -38.5q108 0 166 80t58 232q0 116 -99.5 252t-265.5 237q-271 -116 -411.5 -296t-140.5 -405q0 -311 189 -487.5t524 -176.5q319 0 523.5 200t204.5 508q0 221 -112 376.5t-308 204.5q-16 4 -16 28q0 28 16 28q198 -27 375.5 -149.5t278 -302t100.5 -379.5 q0 -238 -138 -454.5t-369 -344t-493 -127.5q-458 0 -728.5 269.5t-270.5 732.5q0 276 172.5 487t505.5 340q-291 142 -666 142h-12q-16 0 -16 28t16 28h12q398 0 744 -168q488 168 1255 168q16 0 16 -28zM1240 826q0 109 -82 235q48 -96 48 -173q0 -180 -75.5 -278 t-212.5 -98q-103 0 -163 56.5t-60 149.5q0 44 18 88q-58 -46 -58 -120q0 -114 71.5 -183t191.5 -69q144 0 233 107t89 285zM1866 604q0 172 -71 313t-205 236q140 -168 140 -433q0 -336 -222.5 -554t-569.5 -218q-361 0 -569 195t-208 533q0 275 192 503 q-263 -220 -263 -545q0 -403 237.5 -636.5t646.5 -233.5q241 0 446.5 113t325.5 308t120 419z" />
<glyph unicode="&#xf04c;" d="M2015 1599q0 -28 -16 -28h-12q-375 0 -666 -142q333 -129 505.5 -340t172.5 -487q0 -463 -270.5 -732.5t-729.5 -269.5q-261 0 -492 127.5t-369 344t-138 454.5q0 200 100.5 379.5t278 302t375.5 149.5q16 0 16 -28q0 -24 -16 -28q-196 -49 -308 -204.5t-112 -376.5 q0 -308 204 -508t523 -200q335 0 524.5 176.5t189.5 487.5q0 225 -140.5 405t-411.5 296q-166 -101 -265.5 -237t-99.5 -252q0 -152 58 -232t165 -80q75 0 117.5 38.5t42.5 103.5q0 60 -31.5 95t-84.5 35q-31 0 -64 -15q-6 0 -15 8t-9 15q0 13 40 32.5t92 19.5 q102 0 174 -68t72 -176q0 -144 -91.5 -234t-240.5 -90q-167 0 -277 125t-110 319q0 171 118.5 334.5t332.5 288.5q-449 164 -1159 164q-16 0 -16 28t16 28q767 0 1255 -168q346 168 744 168h12q16 0 16 -28zM1345 686q0 74 -58 120q18 -44 18 -88q0 -93 -60 -149.5 t-164 -56.5q-136 0 -211.5 98t-75.5 278q0 77 48 173q-82 -126 -82 -235q0 -178 89 -285t232 -107q121 0 192.5 69t71.5 183zM1910 634q0 325 -263 545q192 -228 192 -503q0 -338 -208 -533t-570 -195q-346 0 -568.5 218t-222.5 554q0 265 140 433q-134 -95 -205 -236 t-71 -313q0 -224 120 -419t325.5 -308t445.5 -113q410 0 647.5 233.5t237.5 636.5z" />
<glyph unicode="&#xf04d;" d="M2027 -400q0 -16 -28 -16t-28 16v12q0 375 -142 666q-129 -333 -340 -505.5t-488 -172.5q-462 0 -731.5 271t-269.5 729q0 261 127 492t344 369t454 138q201 0 380.5 -100.5t302 -278t149.5 -374.5q0 -16 -28 -16q-24 0 -28 16q-50 195 -205 307t-377 112 q-307 0 -507 -204t-200 -523q0 -335 176.5 -524.5t486.5 -189.5q226 0 405.5 140.5t296.5 411.5q-101 166 -237 266t-253 100q-152 0 -232 -58t-80 -166q0 -75 39 -117.5t103 -42.5q61 0 95.5 31.5t34.5 84.5q0 31 -14 64q0 7 8 15.5t15 8.5q12 0 31.5 -40t19.5 -92 q0 -102 -68 -174t-176 -72q-143 0 -233 91.5t-90 240.5q0 167 125 277.5t318 110.5q172 0 335.5 -119t288.5 -333q164 449 164 1159q0 16 28 16t28 -16q0 -767 -168 -1255q168 -346 168 -744v-12zM1461 758q-126 82 -236 82q-177 0 -284 -89.5t-107 -232.5q0 -121 69 -192.5 t182 -71.5q75 0 120 58q-43 -18 -88 -18q-92 0 -149 60t-57 164q0 136 98.5 212t277.5 76q78 0 174 -48zM1579 -48q-228 -192 -504 -192q-338 0 -532.5 208t-194.5 570q0 346 218 568.5t553 222.5q266 0 434 -140q-95 134 -236 205t-314 71q-223 0 -418.5 -120t-308 -325.5 t-112.5 -445.5q0 -410 233.5 -647.5t636.5 -237.5q325 0 545 263z" />
<glyph unicode="&#xf04e;" d="M1999 600q0 -458 -269.5 -729t-732.5 -271q-276 0 -487 172.5t-340 505.5q-142 -291 -142 -666v-12q0 -16 -28 -16t-28 16v12q0 398 168 744q-168 488 -168 1255q0 16 28 16t28 -16q0 -710 164 -1159q125 214 288.5 333t335.5 119q193 0 318 -110.5t125 -277.5 q0 -149 -90 -240.5t-234 -91.5q-108 0 -175.5 72t-67.5 174q0 52 19 92t32 40q7 0 15 -8.5t7 -18.5q-13 -30 -13 -61q0 -53 34.5 -84.5t95.5 -31.5q64 0 102.5 42.5t38.5 117.5q0 108 -80 166t-231 58q-117 0 -253 -100t-237 -266q117 -271 296.5 -411.5t404.5 -140.5 q311 0 487.5 189.5t176.5 524.5q0 319 -200 523t-507 204q-222 0 -377.5 -112t-204.5 -307q-4 -16 -28 -16q-28 0 -28 16q27 197 149.5 374.5t302 278t379.5 100.5q238 0 454.5 -138t344 -369t127.5 -492zM1835 574q0 240 -112.5 445.5t-308 325.5t-419.5 120 q-172 0 -313 -71t-236 -205q168 140 434 140q335 0 553 -222.5t218 -568.5q0 -362 -195 -570t-533 -208q-275 0 -503 192q220 -263 545 -263q403 0 636.5 237.5t233.5 647.5zM1165 518q0 143 -107 232.5t-284 89.5q-110 0 -236 -82q96 48 174 48q179 0 277 -76t98 -212 q0 -104 -56.5 -164t-148.5 -60q-45 0 -88 18q45 -58 119 -58q114 0 183 71.5t69 192.5z" />
<glyph unicode="&#xf04f;" d="M2027 -412q0 -16 -28 -16t-28 16q0 710 -164 1160q-125 -215 -288.5 -333.5t-335.5 -118.5q-193 0 -318 110t-125 278q0 148 90 239.5t233 91.5q108 0 176 -71.5t68 -173.5q0 -53 -19.5 -92.5t-31.5 -39.5q-7 0 -15 8.5t-7 17.5q13 30 13 62q0 53 -34.5 84.5t-95.5 31.5 q-64 0 -103 -43t-39 -117q0 -108 80 -166t232 -58q117 0 253 100t237 266q-117 270 -296.5 410.5t-405.5 140.5q-310 0 -486.5 -189t-176.5 -524q0 -319 200 -523.5t507 -204.5q222 0 377 112t205 308q4 16 28 16q28 0 28 -16q-27 -198 -149.5 -375.5t-302 -278 t-380.5 -100.5q-237 0 -454 138t-344 369t-127 493q0 458 269.5 728.5t731.5 270.5q277 0 488 -172.5t340 -505.5q142 291 142 666v12q0 16 28 16t28 -16v-12q0 -398 -168 -743q168 -489 168 -1256zM1461 442q-96 -48 -174 -48q-179 0 -277.5 75.5t-98.5 212.5 q0 103 57 163.5t149 60.5q45 0 88 -18q-45 57 -120 57q-113 0 -182 -71.5t-69 -191.5q0 -144 107 -233t284 -89q110 0 236 82zM1579 1247q-220 264 -545 264q-403 0 -636.5 -238t-233.5 -647q0 -241 112.5 -446.5t308 -325.5t418.5 -120q173 0 314 71t236 205 q-168 -140 -434 -140q-335 0 -553 222.5t-218 569.5q0 362 194.5 569.5t532.5 207.5q276 0 504 -192z" />
<glyph unicode="&#xf050;" d="M1999 600q0 -262 -127.5 -493t-344 -369t-454.5 -138q-200 0 -379.5 100.5t-302 278t-149.5 375.5q0 16 28 16q24 0 28 -16q49 -196 204.5 -308t377.5 -112q307 0 507 204.5t200 523.5q0 335 -176.5 524t-487.5 189q-225 0 -404.5 -140.5t-296.5 -410.5 q101 -166 237 -266t253 -100q151 0 231 58t80 166q0 74 -38.5 117t-102.5 43q-61 0 -95.5 -31.5t-34.5 -84.5q0 -32 14 -65q0 -6 -8 -14.5t-15 -8.5q-13 0 -32 39.5t-19 92.5q0 102 67.5 173.5t175.5 71.5q144 0 234 -91.5t90 -239.5q0 -168 -125 -278t-318 -110 q-172 0 -335.5 118.5t-288.5 333.5q-164 -450 -164 -1160q0 -16 -28 -16t-28 16q0 767 168 1256q-168 345 -168 743v12q0 16 28 16t28 -16v-12q0 -375 142 -666q129 333 340 505.5t487 172.5q463 0 732.5 -270.5t269.5 -728.5zM1835 626q0 409 -233.5 647t-636.5 238 q-325 0 -545 -264q228 192 503 192q338 0 533 -207.5t195 -569.5q0 -347 -218 -569.5t-553 -222.5q-266 0 -434 140q95 -134 236 -205t313 -71q224 0 419.5 120t308 325.5t112.5 446.5zM1165 682q0 120 -69 191.5t-183 71.5q-74 0 -119 -57q43 18 88 18q92 0 148.5 -60.5 t56.5 -163.5q0 -137 -98 -212.5t-277 -75.5q-78 0 -174 48q126 -82 236 -82q177 0 284 89t107 233z" />
<glyph unicode="&#xf051;" horiz-adv-x="2204" d="M2235 676q0 -28 -24 -28q-60 0 -81 -55q-82 -215 -473 -215q-150 0 -258 46q-40 -226 -242 -226q-140 0 -238.5 125t-112.5 313q-32 4 -48 4q0 -7 1 -21t1 -21q0 -188 -95 -332t-277 -228q103 -98 282 -163q26 -9 26 -31q0 -41 -29.5 -75.5t-54.5 -34.5q-19 0 -102.5 51 t-144.5 108q-171 159 -171 367q0 176 132.5 298t361.5 158q-24 175 -109 278t-203 103q-48 0 -48 -36q0 -13 22 -34q46 -43 46 -100q0 -49 -33.5 -81t-88.5 -32q-73 0 -117.5 47.5t-44.5 125.5q0 84 68 142t168 58q151 0 264.5 -125.5t139.5 -339.5q36 4 56 4 q13 185 110 306t239 121q202 0 242 -228q105 48 258 48q391 0 473 -215q21 -54 81 -54q24 0 24 -28zM2077 676q0 109 -110.5 171.5t-309.5 62.5q-121 0 -203.5 -30t-82.5 -80q0 -62 67.5 -95.5t218.5 -47.5q109 -10 178 -26.5t128 -53.5q18 -11 40 -11q31 0 52.5 30.5 t21.5 79.5zM1231 1075q-33 14 -74 14q-75 0 -136.5 -45.5t-101 -130.5t-39.5 -137q0 -36 34 -56t75 -20q34 0 34 10q6 163 61.5 264t146.5 101zM1343 454q-128 84 -128 222q0 137 128 222q-24 109 -112 109q-65 0 -104.5 -92.5t-39.5 -238.5q0 -147 39.5 -239.5t104.5 -92.5 q88 0 112 110zM694 598v40q-174 -17 -290 -121t-116 -243q0 -101 54 -176q164 52 258 193t94 307z" />
<glyph unicode="&#xf052;" horiz-adv-x="2812" d="M2744 510q-51 -3 -168 -30q-178 -40 -283 -40t-208 28q74 -74 74 -200q0 -105 -73 -177.5t-177 -72.5q-101 0 -173.5 75t-72.5 187q0 34 6 70q67 -90 146 -90q110 0 110 118q0 88 -90 181.5t-233 146t-313 52.5q-242 0 -390 -106.5t-167 -289.5q19 6 58 20q189 66 367 66 q169 0 260.5 -74t91.5 -210q0 -129 -118 -223.5t-294 -94.5q-209 0 -335.5 108.5t-147.5 305.5q-40 -8 -104 -8q-380 0 -380 290q0 97 45.5 184t130.5 154t120 67q31 0 55.5 -62.5t24.5 -128.5t-24 -68q-260 -25 -260 -174q0 -198 288 -198q54 0 100 14q0 202 107 369 t297.5 265.5t400.5 98.5q160 0 402 -25q141 -15 194 -15q188 0 188 126q0 53 -36.5 83.5t-95.5 30.5q-38 0 -86 -16q105 180 244 180q105 0 174.5 -68.5t69.5 -171.5q0 -105 -69 -183.5t-185 -99.5q102 -33 191.5 -92t217.5 -190q81 -83 120 -112zM2405 1187q0 79 -50 127.5 t-130 48.5q-65 0 -118 -50q63 0 109.5 -49.5t46.5 -114.5q0 -140 -106 -200q248 38 248 238zM2605 552q-171 175 -274 234q40 -40 40 -102q0 -54 -31.5 -104.5t-82.5 -75.5h36q115 0 312 48zM2095 268q0 128 -90 196q4 -40 4 -56q0 -98 -54.5 -156t-139.5 -58q-41 0 -80 26 q15 -61 63.5 -99.5t110.5 -38.5q79 0 132.5 53t53.5 133zM1437 164q0 104 -72.5 162t-207.5 58q-146 0 -336 -64q-62 -21 -91 -28q6 -382 367 -382q146 0 243 76.5t97 177.5z" />
<glyph unicode="&#xf053;" horiz-adv-x="3278" d="M3156 636q0 -183 -105.5 -340.5t-287.5 -248.5t-396 -91q-260 0 -482.5 122t-321.5 331q32 -68 32 -143q0 -128 -91 -219t-219 -91q-137 0 -233.5 97t-96.5 233q0 152 88 258t254 156q-89 63 -222 105.5t-243 42.5q-221 0 -382.5 -144t-161.5 -358q37 20 90 20 q84 0 144 -60t60 -144t-60 -145t-144 -61q-103 0 -170.5 87t-67.5 233q0 166 95.5 313.5t257 235.5t339.5 88q101 0 256.5 -41.5t236.5 -95.5q-42 66 -74 158t-32 155q0 128 96 224t224 96t219 -91t91 -219q0 -89 -48 -166q40 12 50 12q111 0 198.5 -68t214.5 -292 q125 -222 214 -291.5t199 -69.5q111 0 202.5 57t150 160.5t58.5 194.5q0 92 -49 150t-125 58q-48 0 -79 -30.5t-31 -77.5q0 -30 8 -56q-64 0 -102.5 39t-38.5 101q0 68 53.5 116.5t127.5 48.5q137 0 220.5 -97t83.5 -252zM2677 158q-89 0 -164 35t-141.5 107.5t-168.5 253.5 q-115 203 -189 264.5t-163 61.5q-12 0 -40 -4q-31 -4 -44 -4q-32 0 -32 32q0 7 3 14q45 93 45 181q0 106 -66.5 175t-177.5 69q-107 0 -181.5 -73t-74.5 -181q0 -68 44.5 -185.5t89.5 -179.5q123 0 248.5 -66t345.5 -272q183 -172 274.5 -224t175.5 -52q148 0 216 48z" />
<glyph unicode="&#xf061;" d="M2027 -400q0 -28 -16 -28h-12q-628 0 -1089 244q-398 -244 -908 -244h-12q-16 0 -16 28t16 28h12q146 0 287 79t345 291q-226 186 -350 426t-124 487q0 306 161.5 497t420.5 191q242 0 375.5 -119.5t133.5 -330.5q0 -195 -142.5 -326t-356.5 -131q-69 0 -111.5 33 t-42.5 57q0 9 11.5 17t24.5 8q12 0 16 -7q22 -44 102 -44q55 0 91.5 64t66.5 225q12 68 55 107t102 39q67 0 118 -42q0 185 -114.5 285.5t-328.5 100.5q-233 0 -375.5 -172.5t-142.5 -451.5q0 -233 118.5 -461t333.5 -406q140 160 316.5 317.5t353 232t369.5 74.5 q80 0 132.5 -6.5t151.5 -30.5l12 -3q16 0 16 -28t-16 -28h-12q-122 0 -244 -66t-360 -293q-260 -248 -428 -359q442 -226 1032 -226h12q16 0 16 -28z" />
<glyph unicode="&#xf062;" d="M2025 -400q0 -28 -16 -28h-12q-510 0 -908 244q-461 -244 -1089 -244h-12q-16 0 -16 28t16 28h12q590 0 1031 226q-167 111 -427 359q-238 227 -360 293t-244 66h-12q-16 0 -16 28t16 29l12 1q97 25 148.5 31.5t135.5 6.5q193 0 369.5 -74.5t353 -232t316.5 -317.5 q215 178 333.5 406t118.5 461q0 279 -143 451.5t-375 172.5q-214 0 -328.5 -100.5t-114.5 -285.5q51 42 117 42q60 0 103 -39t55 -107q30 -161 66.5 -225t91.5 -64q80 0 102 44q4 7 16 7q13 0 24.5 -8t11.5 -17q0 -24 -42.5 -57t-111.5 -33q-214 0 -356.5 131t-142.5 326 q0 211 133.5 330.5t375.5 119.5q259 0 420.5 -191t161.5 -497q0 -247 -124 -487t-350 -426q204 -212 345 -291t287 -79h12q16 0 16 -28z" />
<glyph unicode="&#xf063;" d="M2027 600q0 -28 -16 -29l-12 -1q-97 -25 -149 -31.5t-135 -6.5q-171 0 -327.5 57t-302.5 170.5t-409 395.5q-215 -178 -333.5 -406t-118.5 -461q0 -278 142.5 -451t375.5 -173q214 0 328.5 100.5t114.5 285.5q-51 -42 -118 -42q-59 0 -102 39t-55 107 q-30 161 -66.5 225.5t-91.5 64.5q-80 0 -102 -44q-4 -8 -16 -8q-13 0 -24.5 8.5t-11.5 17.5q0 24 43.5 57t110.5 33q214 0 356.5 -131.5t142.5 -326.5q0 -211 -133.5 -330.5t-375.5 -119.5q-259 0 -420.5 191.5t-161.5 496.5q0 248 124 487.5t350 425.5q-204 212 -345 291 t-287 79h-12q-16 0 -16 28t16 28h12q510 0 908 -244q461 244 1089 244h12q16 0 16 -28t-16 -28h-12q-590 0 -1032 -226q168 -111 428 -359q238 -227 359.5 -292.5t244.5 -65.5h12q16 0 16 -28z" />
<glyph unicode="&#xf064;" d="M2025 1599q0 -28 -16 -28h-12q-146 0 -287 -79t-345 -291q226 -186 350 -425.5t124 -487.5q0 -305 -161.5 -496.5t-420.5 -191.5q-242 0 -375.5 119.5t-133.5 330.5q0 195 142.5 326.5t356.5 131.5q67 0 110.5 -33t43.5 -57q0 -9 -11.5 -17.5t-24.5 -8.5q-12 0 -16 8 q-22 44 -102 44q-55 0 -91.5 -64.5t-66.5 -225.5q-12 -68 -55 -107t-103 -39q-66 0 -117 42q0 -185 114.5 -285.5t328.5 -100.5q232 0 375 173t143 451q0 233 -118.5 461t-333.5 406q-263 -282 -409 -395.5t-302.5 -170.5t-327.5 -57q-81 0 -133 6.5t-151 30.5l-12 3 q-16 0 -16 28t16 28h12q123 0 244.5 65.5t359.5 292.5q260 248 427 359q-441 226 -1031 226h-12q-16 0 -16 28t16 28h12q628 0 1089 -244q398 244 908 244h12q16 0 16 -28z" />
<glyph unicode="&#xf065;" d="M2027 -410q0 -16 -28 -16t-28 16v12q0 146 -79 287t-291 345q-186 -226 -426 -350t-487 -124q-306 0 -497 161.5t-191 420.5q0 242 119.5 376t330.5 134q195 0 326.5 -143t131.5 -357q0 -67 -33 -110.5t-58 -43.5q-9 0 -17 11.5t-8 24.5q0 12 8 16q44 22 44 102 q0 55 -64.5 91.5t-225.5 66.5q-68 12 -107 55t-39 103q0 67 42 118q-185 0 -285.5 -115t-100.5 -329q0 -232 172.5 -375t451.5 -143q233 0 461 118.5t406 333.5q-15 15 -47 44q-262 246 -368 391.5t-157.5 294t-51.5 309.5q0 81 6.5 133t30.5 151l3 12q0 16 28 16t28 -16 v-12q0 -123 66 -245t293 -359q248 -259 359 -427q226 442 226 1031v12q0 16 28 16t28 -16v-12q0 -628 -244 -1089q244 -397 244 -908v-12z" />
<glyph unicode="&#xf066;" d="M1999 342q0 -259 -191.5 -420.5t-496.5 -161.5q-248 0 -487.5 124t-425.5 350q-212 -204 -291 -345t-79 -287v-12q0 -16 -28 -16t-28 16v12q0 511 244 908q-244 461 -244 1089v12q0 16 28 16t28 -16v-12q0 -589 226 -1031q111 168 359 427q227 237 292.5 358.5 t65.5 245.5v12q0 16 28 16t29 -16l1 -12q25 -97 31.5 -148.5t6.5 -135.5q0 -161 -51 -309.5t-157 -294t-368 -391.5q-32 -29 -47 -44q178 -215 406 -333.5t461 -118.5q279 0 451.5 143t172.5 375q0 214 -100.5 329t-285.5 115q42 -51 42 -118q0 -60 -39 -103t-107 -55 q-161 -30 -225.5 -66.5t-64.5 -91.5q0 -80 44 -102q8 -4 8 -16q0 -13 -8.5 -24.5t-16.5 -11.5q-25 0 -58 43.5t-33 110.5q0 214 131.5 357t326.5 143q211 0 330.5 -134t119.5 -376z" />
<glyph unicode="&#xf067;" d="M2027 -410q0 -16 -28 -16t-28 16v12q0 590 -226 1032q-111 -168 -359 -428q-227 -238 -293 -360t-66 -244v-12q0 -16 -28 -16t-29 16l-1 12q-25 97 -31.5 149t-6.5 135q0 171 58 328t171 302.5t395 408.5q-178 216 -406 334t-461 118q-279 0 -451.5 -142.5t-172.5 -374.5 q0 -215 100.5 -329.5t285.5 -114.5q-42 51 -42 118q0 59 39 102t107 55q161 30 225.5 66.5t64.5 92.5q0 79 -44 101q-8 4 -8 17t8 24t17 11q24 0 57.5 -43.5t33.5 -109.5q0 -214 -131.5 -357t-326.5 -143q-211 0 -330.5 133.5t-119.5 376.5q0 258 191 419.5t497 161.5 q247 0 487 -124t426 -350q212 204 291 345t79 287v12q0 16 28 16t28 -16v-12q0 -510 -244 -907q244 -462 244 -1090v-12z" />
<glyph unicode="&#xf068;" d="M1999 860q0 -243 -119.5 -376.5t-330.5 -133.5q-195 0 -326.5 143t-131.5 357q0 66 33.5 109.5t57.5 43.5q8 0 16.5 -11t8.5 -24t-8 -17q-44 -22 -44 -101q0 -56 64.5 -92.5t225.5 -66.5q68 -12 107 -55t39 -102q0 -67 -42 -118q185 0 285.5 114.5t100.5 329.5 q0 232 -172.5 374.5t-451.5 142.5q-233 0 -461 -118t-406 -334q282 -263 395.5 -409t170.5 -302.5t57 -327.5q0 -80 -6.5 -132.5t-30.5 -151.5l-3 -12q0 -16 -28 -16t-28 16v12q0 123 -65.5 244.5t-292.5 359.5q-248 260 -359 428q-226 -442 -226 -1032v-12q0 -16 -28 -16 t-28 16v12q0 628 244 1090q-244 397 -244 907v12q0 16 28 16t28 -16v-12q0 -146 79 -287t291 -345q186 226 425.5 350t487.5 124q305 0 496.5 -161.5t191.5 -419.5z" />
<glyph unicode="&#xf069;" d="M2028 -400q0 -28 -16 -28h-12q-762 0 -1259 172q-329 -172 -728 -172h-12q-16 0 -16 28t16 28h12q353 0 654 144q-329 131 -497.5 340t-168.5 486q0 459 277 730t738 271q283 0 507.5 -118.5t350.5 -332t126 -476.5q0 -131 -60.5 -275t-168.5 -265q-66 -76 -141.5 -133 t-156.5 -92t-107 -35q-11 0 -19.5 12.5t-8.5 24.5q0 10 6 13q145 81 214.5 225t69.5 367q0 384 -202 588.5t-587 204.5q-354 0 -564 -195.5t-210 -513.5q0 -267 169.5 -467t500.5 -323q200 112 307.5 267.5t107.5 334.5q-53 -42 -117 -42q-61 0 -103.5 38.5t-55.5 107.5 q-29 161 -65.5 225.5t-91.5 64.5q-80 0 -102 -44q-4 -8 -16 -8q-13 0 -25 8.5t-12 17.5q0 11 22 37t55.5 39.5t77.5 13.5q213 0 355 -131.5t142 -326.5q0 -184 -105 -346t-300 -282q477 -154 1191 -154h12q16 0 16 -28z" />
<glyph unicode="&#xf06a;" d="M2015 -400q0 -28 -16 -28h-12q-400 0 -728 172q-497 -172 -1259 -172h-12q-16 0 -16 28t16 28h12q714 0 1191 154q-195 120 -300 282t-105 346q0 195 142 326.5t355 131.5q44 0 77.5 -13.5t55.5 -39.5t22 -37q0 -9 -12 -17.5t-25 -8.5q-12 0 -16 8q-22 44 -102 44 q-55 0 -91.5 -64.5t-65.5 -225.5q-13 -69 -55.5 -107.5t-103.5 -38.5q-64 0 -117 42q0 -179 107.5 -334.5t307.5 -267.5q331 123 500.5 323t169.5 467q0 318 -210 513.5t-564 195.5q-385 0 -587 -204.5t-202 -588.5q0 -223 69.5 -367t214.5 -225q6 -3 6 -13 q0 -12 -8.5 -24.5t-19.5 -12.5q-26 0 -107 35t-156.5 92t-141.5 133q-108 121 -168.5 265t-60.5 275q0 263 126 476.5t350.5 332t506.5 118.5q462 0 739 -271t277 -730q0 -277 -168.5 -486t-497.5 -340q301 -144 654 -144h12q16 0 16 -28z" />
<glyph unicode="&#xf06b;" d="M2028 1599q0 -28 -16 -28h-12q-714 0 -1191 -154q195 -119 300 -281.5t105 -345.5q0 -196 -142 -327t-355 -131q-44 0 -77.5 13t-55.5 39t-22 37q0 9 12 17.5t25 8.5q12 0 16 -7q22 -44 102 -44q55 0 91.5 64.5t66.5 225.5q12 68 54.5 106.5t103.5 38.5q64 0 117 -41 q0 178 -107.5 333.5t-307.5 267.5q-331 -123 -500.5 -322.5t-169.5 -466.5q0 -319 210 -514.5t564 -195.5q385 0 587 205t202 589q0 222 -69.5 366.5t-214.5 224.5q-6 3 -6 13q0 12 8.5 24.5t19.5 12.5q26 0 107 -34.5t157 -92.5t142 -133q107 -122 167.5 -265.5 t60.5 -273.5q0 -264 -126 -477.5t-350.5 -332t-507.5 -118.5q-461 0 -738 271t-277 731q0 276 168.5 485.5t497.5 339.5q-301 144 -654 144h-12q-16 0 -16 28t16 28h12q399 0 728 -172q497 172 1259 172h12q16 0 16 -28z" />
<glyph unicode="&#xf06c;" d="M2015 1599q0 -28 -16 -28h-12q-353 0 -654 -144q329 -130 497.5 -339.5t168.5 -485.5q0 -460 -277 -731t-739 -271q-282 0 -506.5 118.5t-350.5 332t-126 477.5q0 130 60.5 273.5t167.5 265.5q66 75 142 133t157 92.5t107 34.5q11 0 19.5 -12.5t8.5 -24.5q0 -10 -6 -13 q-145 -80 -214.5 -224.5t-69.5 -366.5q0 -384 202 -589t587 -205q354 0 564 195.5t210 514.5q0 267 -169.5 466.5t-500.5 322.5q-200 -112 -307.5 -267.5t-107.5 -333.5q53 41 117 41q61 0 103.5 -38.5t54.5 -106.5q30 -161 66.5 -225.5t91.5 -64.5q80 0 102 44q4 7 16 7 q13 0 25 -8.5t12 -17.5q0 -11 -22 -37t-55.5 -39t-77.5 -13q-213 0 -355 131t-142 327q0 183 105 345.5t300 281.5q-477 154 -1191 154h-12q-16 0 -16 28t16 28h12q762 0 1259 -172q328 172 728 172h12q16 0 16 -28z" />
<glyph unicode="&#xf06d;" d="M2027 -400q0 -16 -28 -16t-28 16v12q0 353 -144 654q-131 -328 -340 -497t-486 -169q-459 0 -730 277t-271 739q0 283 118.5 507.5t332 350t476.5 125.5q131 0 275 -61t266 -168q75 -66 132 -142t92 -156.5t35 -106.5q0 -11 -12.5 -19.5t-24.5 -8.5q-10 0 -13 6 q-81 146 -225 215t-367 69q-383 0 -588 -202t-205 -587q0 -354 195.5 -564t513.5 -210q267 0 467 169.5t323 500.5q-112 200 -267.5 308t-334.5 108q42 -54 42 -118q0 -61 -38.5 -103.5t-107.5 -55.5q-161 -29 -225 -65.5t-64 -91.5q0 -80 44 -102q7 -4 7 -16 q0 -13 -8.5 -25t-17.5 -12q-11 0 -37 22t-39 55.5t-13 77.5q0 213 131 355.5t326 142.5q184 0 346.5 -105.5t281.5 -300.5q154 477 154 1191v12q0 16 28 16t28 -16v-12q0 -762 -172 -1259q172 -328 172 -728v-12z" />
<glyph unicode="&#xf06e;" d="M1999 616q0 -462 -271 -739t-731 -277q-276 0 -485 169t-340 497q-144 -301 -144 -654v-12q0 -16 -28 -16t-28 16v12q0 400 172 728q-172 497 -172 1259v12q0 16 28 16t28 -16v-12q0 -714 154 -1191q119 195 281.5 300.5t346.5 105.5q195 0 326 -142.5t131 -355.5 q0 -44 -13 -77.5t-39 -55.5t-37 -22q-9 0 -17.5 12t-8.5 25q0 12 7 16q44 22 44 102q0 55 -64.5 91.5t-225.5 66.5q-68 12 -106.5 54.5t-38.5 103.5q0 64 42 118q-179 0 -334.5 -108t-267.5 -308q123 -331 323 -500.5t466 -169.5q319 0 514.5 210t195.5 564q0 385 -205 587 t-589 202q-222 0 -366 -69t-225 -215q-3 -6 -13 -6q-12 0 -24.5 8.5t-12.5 19.5q0 26 35 107t92 156.5t133 141.5q121 108 265 168.5t274 60.5q264 0 477.5 -125.5t332 -350t118.5 -507.5z" />
<glyph unicode="&#xf06f;" d="M2027 -412q0 -16 -28 -16t-28 16v12q0 714 -154 1192q-119 -196 -281.5 -301t-346.5 -105q-195 0 -326 142t-131 356q0 43 13 76.5t39 55.5t37 22q9 0 17.5 -12t8.5 -25q0 -12 -7 -16q-44 -22 -44 -101q0 -56 64 -92.5t225 -65.5q69 -12 107.5 -55t38.5 -104 q0 -63 -42 -117q179 0 334.5 108t267.5 308q-123 330 -323 499.5t-467 169.5q-318 0 -513.5 -210t-195.5 -563q0 -386 205 -588t588 -202q223 0 367 69.5t225 214.5q3 6 13 6q12 0 24.5 -8.5t12.5 -19.5q0 -26 -35 -106.5t-92.5 -157t-133.5 -142.5q-121 -106 -264.5 -167 t-274.5 -61q-263 0 -476.5 126t-332 350.5t-118.5 507.5q0 461 271 738t730 277q277 0 486 -168.5t340 -497.5q144 301 144 654v12q0 16 28 16t28 -16v-12q0 -399 -172 -727q172 -498 172 -1260v-12z" />
<glyph unicode="&#xf070;" d="M1999 584q0 -283 -118.5 -507.5t-332 -350.5t-477.5 -126q-130 0 -273 61t-265 167q-75 65 -133 142t-93 157.5t-35 106.5q0 11 12.5 19.5t24.5 8.5q10 0 13 -6q81 -145 225 -214.5t366 -69.5q384 0 589 202t205 588q0 353 -195.5 563t-514.5 210q-266 0 -466 -169.5 t-323 -499.5q112 -200 267.5 -308t334.5 -108q-42 54 -42 117q0 61 38.5 104t106.5 55q161 29 225.5 65.5t64.5 92.5q0 79 -44 101q-7 4 -7 16q0 13 8.5 25t17.5 12q11 0 37 -22t39 -55.5t13 -76.5q0 -214 -131 -356t-326 -142q-184 0 -346.5 105t-281.5 301 q-154 -478 -154 -1192v-12q0 -16 -28 -16t-28 16v12q0 762 172 1260q-172 328 -172 727v12q0 16 28 16t28 -16v-12q0 -353 144 -654q131 329 340 497.5t485 168.5q460 0 731 -277t271 -738z" />
<glyph unicode="&#xf071;" horiz-adv-x="2204" d="M2235 676q0 -28 -24 -28q-60 0 -81 -55q-82 -215 -473 -215q-150 0 -258 46q-40 -226 -242 -226q-140 0 -238.5 125t-112.5 313q-32 4 -48 4q0 -7 1 -21t1 -21q0 -188 -95 -332t-277 -228q103 -98 282 -163q26 -9 26 -31q0 -41 -29.5 -75.5t-54.5 -34.5q-19 0 -102.5 51 t-144.5 108q-171 159 -171 367q0 176 132.5 298t361.5 158q-24 175 -109 278t-203 103q-48 0 -48 -36q0 -13 22 -34q46 -43 46 -100q0 -49 -33.5 -81t-88.5 -32q-73 0 -117.5 47.5t-44.5 125.5q0 84 68 142t168 58q151 0 264.5 -125.5t139.5 -339.5q36 4 56 4 q13 185 110 306t239 121q202 0 242 -228q105 48 258 48q391 0 473 -215q21 -54 81 -54q24 0 24 -28zM1343 454q-128 84 -128 222q0 137 128 222q-24 109 -112 109q-65 0 -104.5 -92.5t-39.5 -238.5q0 -147 39.5 -239.5t104.5 -92.5q88 0 112 110zM694 598v40 q-174 -17 -290 -121t-116 -243q0 -101 54 -176q164 52 258 193t94 307z" />
<glyph unicode="&#xf072;" horiz-adv-x="2812" d="M2744 510q-51 -3 -168 -30q-178 -40 -283 -40t-208 28q74 -74 74 -200q0 -105 -73 -177.5t-177 -72.5q-101 0 -173.5 75t-72.5 187q0 34 6 70q67 -90 146 -90q110 0 110 118q0 88 -90 181.5t-233 146t-313 52.5q-242 0 -390 -106.5t-167 -289.5q19 6 58 20q189 66 367 66 q169 0 260.5 -74t91.5 -210q0 -129 -118 -223.5t-294 -94.5q-209 0 -335.5 108.5t-147.5 305.5q-40 -8 -104 -8q-380 0 -380 290q0 97 45.5 184t130.5 154t120 67q31 0 55.5 -62.5t24.5 -128.5t-24 -68q-260 -25 -260 -174q0 -198 288 -198q54 0 100 14q0 202 107 369 t297.5 265.5t400.5 98.5q160 0 402 -25q141 -15 194 -15q188 0 188 126q0 53 -36.5 83.5t-95.5 30.5q-38 0 -86 -16q105 180 244 180q105 0 174.5 -68.5t69.5 -171.5q0 -105 -69 -183.5t-185 -99.5q102 -33 191.5 -92t217.5 -190q81 -83 120 -112zM1437 164q0 104 -72.5 162 t-207.5 58q-146 0 -336 -64q-62 -21 -91 -28q6 -382 367 -382q146 0 243 76.5t97 177.5z" />
<glyph unicode="&#xf073;" horiz-adv-x="3278" d="M3156 636q0 -183 -105.5 -340.5t-287.5 -248.5t-396 -91q-260 0 -482.5 122t-321.5 331q32 -68 32 -143q0 -128 -91 -219t-219 -91q-137 0 -233.5 97t-96.5 233q0 152 88 258t254 156q-89 63 -222 105.5t-243 42.5q-221 0 -382.5 -144t-161.5 -358q37 20 90 20 q84 0 144 -60t60 -144t-60 -145t-144 -61q-103 0 -170.5 87t-67.5 233q0 166 95.5 313.5t257 235.5t339.5 88q101 0 256.5 -41.5t236.5 -95.5q-42 66 -74 158t-32 155q0 128 96 224t224 96t219 -91t91 -219q0 -89 -48 -166q40 12 50 12q111 0 198.5 -68t214.5 -292 q125 -222 214 -291.5t199 -69.5q111 0 202.5 57t150 160.5t58.5 194.5q0 92 -49 150t-125 58q-48 0 -79 -30.5t-31 -77.5q0 -30 8 -56q-64 0 -102.5 39t-38.5 101q0 68 53.5 116.5t127.5 48.5q137 0 220.5 -97t83.5 -252z" />
<glyph unicode="&#xf074;" horiz-adv-x="1758" d="M1607 447q-30 0 -60 7q-117 26 -162 26h-10q82 -161 113 -181q4 -3 4 -11q0 -13 -11 -27t-23 -14l-6 2q-30 20 -149 39q5 -22 5 -46q0 -41 -23 -118q-23 -75 -23 -115q0 -44 19 -85q3 -5 3 -10q0 -12 -19 -12q-37 0 -82.5 35t-77.5 101q-56 113 -82 142 q-72 -157 -72 -202q0 -19 -32 -19q-27 0 -28 17q-2 32 -61 140q-39 -48 -140 -88q-76 -30 -108 -56.5t-51 -66.5q-4 -9 -13 -9q-13 0 -25.5 30t-12.5 70q0 55 25 108q58 122 65 162q-174 -43 -203 -68l-8 -3q-12 0 -24 13t-12 26q0 7 4 10q23 19 73 136q-63 0 -158 54 q-92 53 -150 53q-21 0 -44 -5l-5 -1q-13 0 -13 13q0 34 46 75t115 57q122 28 163 50q-134 105 -178 116q-14 0 -14 24q0 13 6.5 24.5t17.5 11.5q6 -2 14 -2q40 0 136 30q-38 48 -55 156q-12 81 -30.5 118t-52.5 64q-7 6 -7 13q0 22 60 22q80 0 173 -76q72 -60 116 -78 q-3 179 -21 212l-2 5q0 11 13.5 21t27.5 10q11 0 15 -6q17 -31 115 -100q14 59 87 139q56 61 73.5 99t17.5 82q0 14 12 14q30 0 63.5 -55.5t33.5 -128.5q0 -130 12 -174q138 117 152 150q4 8 16 8q17 0 29.5 -8.5t11.5 -23.5q-8 -18 -8 -67q0 -33 3 -85q44 21 103 21 q20 0 60 -3q39 -3 59 -3q82 0 139 45q5 4 10 4q15 0 15 -33q0 -89 -103 -172q-91 -72 -115 -107q137 -29 185 -29q17 0 29 3q9 0 17 -12.5t8 -26.5q0 -18 -11 -21q-31 -8 -124 -89q56 -28 118 -119q46 -67 79 -92.5t75 -34.5q13 -3 13 -12q0 -19 -43.5 -41t-97.5 -22z M1445 1109l2 6q0 19 -17 19l-6 -1q-31 -20 -85 -33q-132 -32 -132 -113v-10q46 -60 54 -81q26 88 158 193zM1127 1263l-74 -178q39 -14 70 -36zM1483 862l-186 -54q7 -24 16 -76zM963 1111q-29 44 -40.5 98t-11.5 148v32q0 8 -15 8q-16 0 -16 -10q-4 -36 -28 -88 q-26 -56 -26 -98q0 -56 40 -80q64 0 97 -10zM1572 536q0 9 -7 12q-34 12 -79 47q-66 51 -115 51q-39 0 -64 -26q-13 -61 -30 -92q46 19 98 19q57 0 152 -22l34 -8q11 0 11 19zM758 1101l-166 136l94 -168q24 15 72 32zM1389 334l-158 110q-10 -15 -50 -60zM1259 694 q0 154 -108.5 263.5t-262.5 109.5q-80 0 -158 -34.5t-78 -89.5t58 -55q56 0 103 -28.5t47 -53.5q0 -63 -22 -142q28 -8 50 -8q30 0 63 12q6 0 14 -14.5t8 -25.5q0 -10 -29 -18t-56 -8v-60q14 14 35 14q13 0 40 -13t40 -13q16 0 31 10l9 4q26 0 26 -28q0 -10 -28 -25t-54 -15 q-11 0 -34 10q-18 8 -26 8q-6 0 -16 -3q-13 -3 -23 -3q-13 0 -25 3q-9 3 -15 3q-8 0 -25 -8q-24 -10 -37 -10q6 0 28 -11q48 -25 74 -25q24 0 41 9q8 5 14 5q18 0 18 -20q0 -12 -24.5 -28t-48.5 -16q-14 0 -23 -11t-9 -25q0 -32 32 -32q153 0 262 109t109 263zM798 802 q0 7 -22 15.5t-50 10.5q22 -11 22 -34q0 -25 -22 -36q26 3 49 19t23 25zM610 1015q-52 2 -102 26.5t-124 83.5l-24 20l-6 2q-16 0 -16 -19l3 -8q25 -25 51 -76q52 -105 121 -105q14 0 27 4q38 48 70 72zM698 758q-22 9 -22 36q0 24 22 34q-29 -2 -50.5 -10.5t-21.5 -15.5 q0 -9 22.5 -25t49.5 -19zM1196 74q-13 34 -14 91q-1 145 -91 155q-54 -27 -92 -34q46 -27 80 -71t74 -127l14 -30q2 -4 7 -4q22 0 22 20zM750 570q-50 22 -50 76q0 16 2 24q-55 0 -84 26q-54 -34 -54 -96q0 -32 25 -53t65 -21q64 0 96 44zM488 846l-210 -44l190 -32 q6 38 20 76zM917 76l-10 194q-15 -1 -32 -1q-28 0 -47 3zM476 578q-13 62 -13 88q0 5 1 10q-36 -39 -86.5 -62.5t-141.5 -43.5l-30 -6q-7 -2 -7 -12q0 -19 15 -19h26q25 0 66 -8q40 -8 61 -8q90 0 109 61zM566 414q-34 42 -46 64l-96 -192zM735 258q0 24 -13 44 q-55 24 -84 50q3 -20 3 -39q0 -74 -61 -205l-15 -32q13 -14 18 -14q7 0 10 5q19 29 62 64q80 66 80 127zM1213 806q0 -28 -46.5 -64t-101.5 -36t-102.5 36t-47.5 64q0 25 47 53.5t103 28.5t102 -28.5t46 -53.5zM1149 802q0 7 -21.5 15.5t-50.5 10.5q22 -11 22 -34 q0 -25 -22 -36q27 3 49.5 19t22.5 25zM1049 758q-22 9 -22 36q0 23 22 34q-28 -2 -50 -10.5t-22 -15.5q0 -9 23 -25t49 -19z" />
<glyph unicode="&#xf075;" horiz-adv-x="1412" d="M1366 210q0 -21 -95.5 -97t-210 -116.5t-240.5 -40.5q-196 0 -364 97.5t-265 265.5t-97 363q0 196 97 364t265 265.5t364 97.5q148 0 283.5 -57.5t135.5 -88.5q-3 -14 -14 -26t-24 -12l-4 2q-55 42 -162 42q-85 0 -147 -56t-62 -156q0 -94 -76 -120q3 -58 75 -154 q65 -87 65 -133q0 -44 -35 -66.5t-127 -41.5v-14q0 -181 87 -284.5t228 -103.5q172 0 276 106l9 3q12 0 25 -13.5t13 -25.5zM1015 1315q-83 26 -157 26q-118 0 -208 -78.5t-90 -177.5q0 -90 146 -90q56 0 56 62q0 118 66.5 184.5t186.5 73.5zM826 650q0 23 -50 89 q-86 114 -90 190q-51 8 -100 8q-154 0 -154 -85q0 -42 34 -42q50 0 58 38q3 14 28 14q36 0 36 -20q0 -38 -36 -65t-94 -27q-28 0 -54.5 13t-35.5 29q-46 0 -79 -42.5t-33 -101.5q0 -72 34.5 -111t97.5 -39q31 0 60.5 24t77.5 97q54 83 82 83q0 -43 50 -110q69 6 118.5 22 t49.5 36zM674 412q-10 63 -10 116q-18 -2 -52 -2q-70 0 -70 -110q0 -12 2 -16zM1029 80q-123 0 -211.5 70.5t-127.5 197.5l-134 -12q43 -123 165 -189.5t308 -66.5z" />
<glyph unicode="&#xf076;" horiz-adv-x="1986" d="M1875 736q0 -114 -67.5 -213.5t-194.5 -172.5l-32 -150q-14 -52 -175 -83t-413 -31t-412.5 31t-176.5 83l-32 150q-127 74 -194.5 173.5t-67.5 212.5q0 123 80 214t180 91q40 0 84 -12q15 58 68 98t108 40q60 0 120 -40q27 52 86 52h22q-32 45 -32 96q0 69 49 118.5 t118 49.5t117.5 -49t48.5 -119q0 -49 -30 -96h20q59 0 86 -52q60 40 122 40q53 0 106 -40.5t68 -97.5q48 12 84 12q100 0 180 -91t80 -214zM1811 736q0 95 -50 165.5t-138 89.5q76 -54 76 -163q0 -111 -39 -187.5t-123 -134.5q70 -22 106 -60q79 54 123.5 130.5t44.5 159.5z M1091 1301q-7 33 -35 55.5t-63 22.5q-34 0 -62 -22t-37 -56q47 18 99 18q50 0 98 -18zM1085 1231q-42 14 -92 14q-52 0 -93 -14q30 -58 93 -58q65 0 92 58zM1487 939q0 74 -38.5 119t-91.5 45q-55 0 -98 -24q41 -3 65.5 -35.5t24.5 -84.5q0 -212 -120 -389l138 -18 q120 177 120 387zM1143 1123q-92 -12 -150 -66q-56 54 -149 66q35 -14 57 -168.5t22 -374.5q22 2 70 2q46 0 70 -2q0 220 22.5 374.5t57.5 168.5zM756 570q-120 177 -120 389q0 53 25 85t67 35q-46 24 -98 24q-54 0 -93 -44.5t-39 -119.5q0 -211 122 -387q112 16 136 18z M1573 430q-84 42 -242.5 68t-337.5 26t-337 -26t-244 -68l30 -132q78 35 228.5 56.5t322.5 21.5t322 -21.5t228 -56.5zM448 506q-84 58 -123 134.5t-39 187.5q0 109 78 163q-89 -19 -139.5 -89t-50.5 -166q0 -84 45 -160t125 -130q33 38 104 60zM1465 365q-9 0 -27.5 5.5 t-18.5 17.5q0 9 5.5 27.5t16.5 18.5q9 0 27.5 -5.5t18.5 -18.5q0 -45 -22 -45zM1310 396q-42 0 -42 22q0 44 23 44q42 0 42 -22q0 -44 -23 -44zM1157 413q-22 0 -32 4t-10 20q0 22 4 31.5t20 9.5q22 0 31.5 -4t9.5 -20q0 -24 -4 -32.5t-19 -8.5zM1025 450q0 -21 -5.5 -26.5 t-26.5 -5.5q-24 0 -28 6t-4 26q0 21 5 26.5t27 5.5q21 0 26.5 -5.5t5.5 -26.5zM870 435q0 -14 -8.5 -18t-33.5 -4q-15 0 -19 9.5t-4 31.5q0 16 9.5 20t31.5 4q16 0 20 -9.5t4 -33.5zM717 420q0 -24 -42 -24q-23 0 -23 44q0 22 44 22q21 0 21 -42zM566 389q0 -13 -18.5 -18.5 t-27.5 -5.5q-21 0 -21 45q0 13 19 18.5t27 5.5q21 0 21 -45z" />
<glyph unicode="&#xf078;" horiz-adv-x="1794" d="M1733 780q0 -83 -43 -151.5t-128 -120.5t-108 -52q-10 0 -19 12t-9 25q0 11 5 15q36 24 36 74q0 42 -34.5 67t-97.5 25q-113 0 -195.5 -77t-82.5 -197h40q16 0 16 -28t-16 -28h-40q0 -148 60 -148q18 0 36 17q21 21 46 21q33 0 53.5 -24t20.5 -60t-26.5 -57t-67.5 -21 q-88 0 -137 71.5t-49 200.5h-64q0 -58 22 -143q16 -65 16 -99q0 -37 -11 -80t-24 -70.5t-34 -27.5q-26 0 -48 61t-22 117q0 34 16 99q22 85 22 143h-66q0 -129 -49 -200.5t-137 -71.5q-40 0 -66 21.5t-26 56.5q0 37 20 60.5t54 23.5q24 0 45 -21q18 -17 35 -17q60 0 60 148 h-40q-16 0 -16 28t16 28h40q0 120 -82.5 197t-195.5 77q-63 0 -97.5 -25t-34.5 -67q0 -48 36 -74q5 -4 5 -15q0 -14 -8 -25.5t-18 -11.5q-23 0 -108.5 52t-129 120.5t-43.5 151.5q0 100 66 167.5t166 67.5q117 0 236 -91.5t195.5 -238t76.5 -285.5h66q0 70 -18 139.5 t-74 188.5q-50 107 -65 164t-15 111q0 84 29.5 172t108.5 214q38 61 38 74q0 16 28 16q27 0 27 -16q0 -13 38 -74q78 -126 107 -214t29 -172q0 -54 -15 -111t-65 -164q-55 -119 -72.5 -188.5t-17.5 -139.5h64q0 139 76.5 285.5t195.5 238t236 91.5q100 0 166 -67.5 t66 -167.5zM1669 780q0 74 -47.5 122.5t-120.5 48.5q-90 0 -186 -64.5t-158 -168.5q122 128 260 128q83 0 133.5 -46.5t50.5 -119.5q0 -39 -20 -82q88 73 88 182zM898 582v791q-80 -122 -110 -206.5t-30 -163.5q0 -50 14 -103.5t61 -153.5q50 -106 65 -164zM636 718 q-62 104 -158 168.5t-186 64.5q-73 0 -120.5 -48.5t-47.5 -122.5q0 -109 90 -182q-20 37 -20 82q0 72 50 119t132 47q138 0 260 -128z" />
<glyph unicode="&#xf079;" d="M1969 497q-99 -63 -234.5 -205t-233.5 -284q-159 -52 -476 -52q-312 0 -509 32q-24 74 -74 168l-186 86q-6 3 -6 13q0 14 8.5 27t21.5 12l24 -10q7 -4 15 -4q42 0 88 74.5t55 161.5q-24 -2 -52 -30q-34 -34 -66 -34l-8 1q-9 3 -20 3q-41 0 -97 -54q-43 -40 -65 -40 q-9 0 -17.5 12t-8.5 22l4 14q12 30 12 50q0 35 -20 91q-8 24 -8 31q0 12 8.5 23t15.5 11l11 -3q10 -3 17 -3q30 0 68 19q36 19 64 19q31 0 72 30q25 18 40 24q-22 25 -54 40q-5 2 -5 9q0 11 10 23.5t23 12.5l7 -2q158 -109 281 -131q18 42 18 102q0 73 -30.5 126.5 t-77.5 60.5q-13 0 -13 24q0 12 6.5 21.5t14.5 9.5q34 -7 136 -7q42 0 64 2v86h-108q-16 0 -16 28t16 28q25 0 43.5 11.5t64.5 54.5v106q-32 -4 -98 -6q-120 -5 -120 -28q0 -13 13 -34q15 -25 15 -44q0 -33 -17 -51t-73 -28q-53 -10 -73.5 -25t-28.5 -42q-11 -39 -50.5 -62.5 t-91.5 -23.5q-73 0 -132 -65l-7 -3q-9 0 -19 12t-10 25q0 20 58 57.5t110 37.5q41 0 58.5 14t29.5 45q13 35 40.5 54t89.5 27q52 7 52 26q0 14 -16 36q-18 26 -18 44q0 37 34 55.5t146 26.5q109 7 147 23l9 2q19 0 18 -25q-2 -8 -2 -48v-106q43 -43 61.5 -54.5t43.5 -11.5 q16 0 16 -28t-16 -28h-105v-84q88 7 112 20q6 3 12 3q23 0 23 -21q0 -5 18 -56q7 10 14 10q48 -8 136 -8h18v82h-94q-16 0 -16 28q0 30 16 30q23 0 39 12.5t55 53.5v96q0 16 32 16t32 -16v-96q41 -41 57.5 -53.5t38.5 -12.5q16 0 16 -30q0 -28 -16 -28h-96v-80q104 7 134 23 q6 3 12 3q24 0 24 -20q0 -11 8 -30q0 9 13 17.5t22 8.5q10 0 15 -8q54 -80 177.5 -219.5t212.5 -223.5q67 50 74 50q10 0 19.5 -13t9.5 -25q0 -8 -5 -11zM1747 482q0 82 -152 216q102 -240 112 -292q40 31 40 76zM1641 326q-6 92 -121 363l-35 85q18 -69 18 -104 q0 -59 -15 -95t-53 -63q146 -104 206 -186zM1371 898q-66 -18 -200 -18h-18q46 -65 46 -172q0 -98 -38 -144q243 0 243 186q0 66 -33 148zM1549 322q0 27 -72 96q31 -71 34 -138q38 22 38 42zM1135 708q0 69 -26.5 120.5t-69.5 63.5q44 -112 44 -174q0 -50 -8 -76h54 q6 27 6 66zM1639 266q-17 10 -38 10q-60 0 -100 -80l92 18zM1461 240q0 127 -108 278q-12 2 -46 2l94 -340l54 8q6 24 6 52zM1339 172l-86 346v-354zM951 945q-65 -18 -223 -18h-18q46 -64 46 -171q0 -98 -38 -144q126 0 195.5 51t69.5 144q0 62 -32 138zM1189 162v356 l-88 -360zM1133 502l-82 -12q-16 0 -16 30q0 21 17 27q24 9 43 29h-58q-16 -14 -38 -26q-56 4 -101 4l111 -396h30zM943 160l-63 262v-19q0 -154 -76 -237zM760 550q-38 -2 -101 -8q-42 -4 -51 -4q-16 0 -16 28q0 23 16 28l9 5l5 2q-28 3 -110 43q18 -45 18 -90 q0 -82 -47 -181t-97 -129q87 -41 165 -41q102 0 165 66t63 169q0 55 -19 112z" />
<glyph unicode="&#xf07a;" horiz-adv-x="1542" d="M1541 296q0 -150 -97.5 -244t-258.5 -94q-211 0 -339 158q-31 -59 -119 -108.5t-181 -49.5q-207 0 -331.5 140.5t-124.5 385.5q0 221 133 439.5t347.5 352t438.5 133.5q65 0 121 -8.5t65.5 -15.5t9.5 -26q0 -17 -16 -27q-164 -99 -255.5 -285.5t-91.5 -424.5 q0 -253 98 -390.5t277 -137.5q93 0 151.5 58t58.5 148q0 178 -150 178q-51 0 -79.5 -26t-28.5 -72q0 -38 47 -53q43 -14 43 -47q0 -26 -17.5 -42t-46.5 -16q-50 0 -85 34t-35 82q0 89 62 147.5t160 58.5q106 0 175 -70.5t69 -177.5zM1093 1325q-252 -24 -423.5 -244 t-171.5 -509q0 -181 79 -290.5t203 -109.5q18 0 26 2q-90 149 -90 390q0 226 108.5 444.5t268.5 316.5z" />
<glyph unicode="&#xf8ff;" horiz-adv-x="1659" d="M703 1206q106 -30 141 -30q44 0 141 33q98 33 174 33q184 0 317 -164q-102 -86 -140.5 -161.5t-38.5 -165.5q0 -122 68.5 -221t158.5 -126q-49 -157 -159 -302t-222 -145q-49 0 -140 33q-87 31 -150 31q-65 0 -144 -32q-82 -34 -134 -34q-150 0 -298 258t-148 508 q0 225 112 369.5t287 144.5q75 0 175 -29zM1145 1598q2 -6 2 -20q0 -53 -23 -119t-67 -118q-46 -55 -92 -84.5t-151 -41.5q1 148 76.5 256.5t250.5 148.5q2 -7 4 -22z" />
<glyph />
<glyph horiz-adv-x="0" d="M0 1613v-2029v416v1613l1000 -1613h-2000h1000h1000z" />
</font>
</defs>
</svg>
